<svg xmlns="http://www.w3.org/2000/svg" xmlns:xlink="http://www.w3.org/1999/xlink" width="40" height="40" viewBox="0 0 40 40" fill="none">
<path d="M36.1599 15C36.6666 15 37.1532 15.1 37.6199 15.3C38.0866 15.5 38.4866 15.7667 38.8199 16.1C39.1532 16.4333 39.4198 16.8333 39.6198 17.3C39.8198 17.7667 39.9198 18.2533 39.9198 18.76C39.9198 19.2933 39.8198 19.7867 39.6198 20.24C39.4198 20.6933 39.1532 21.0867 38.8199 21.42C38.4866 21.7533 38.0866 22.02 37.6199 22.22C37.1532 22.42 36.6666 22.52 36.1599 22.52L24.9199 22.52L24.9199 33.76C24.9199 34.2933 24.8199 34.7867 24.6199 35.24C24.4199 35.6933 24.1532 36.0867 23.8199 36.42C23.4866 36.7533 23.0866 37.02 22.6199 37.22C22.1532 37.42 21.6666 37.52 21.1599 37.52C20.6266 37.52 20.1332 37.42 19.6799 37.22C19.2266 37.02 18.8332 36.7533 18.4999 36.42C18.1666 36.0867 17.8999 35.6933 17.6999 35.24C17.4999 34.7867 17.3999 34.2933 17.3999 33.76L17.3999 22.52L6.1599 22.52C5.62657 22.52 5.13323 22.42 4.6799 22.22C4.22657 22.02 3.83323 21.7533 3.4999 21.42C3.16657 21.0867 2.8999 20.6933 2.6999 20.24C2.4999 19.7867 2.3999 19.2933 2.3999 18.76C2.3999 18.2533 2.4999 17.7667 2.6999 17.3C2.8999 16.8333 3.16657 16.4333 3.4999 16.1C3.83323 15.7667 4.22657 15.5 4.6799 15.3C5.13323 15.1 5.62657 15 6.1599 15L17.3999 15L17.3999 3.76C17.3999 3.25333 17.4999 2.76667 17.6999 2.3C17.8999 1.83333 18.1666 1.43333 18.4999 1.1C18.8332 0.766668 19.2266 0.5 19.6799 0.3C20.1332 0.1 20.6266 3.72526e-08 21.1599 0C22.1999 0 23.0866 0.366667 23.8199 1.1C24.5532 1.83333 24.9199 2.72 24.9199 3.76L24.9199 15L36.1599 15Z"   fill="#007AAB" >
</path>
</svg>
