<svg xmlns="http://www.w3.org/2000/svg" xmlns:xlink="http://www.w3.org/1999/xlink" width="40" height="40" viewBox="0 0 40 40" fill="none">
<path d="M36.16 15C36.6667 15 37.1533 15.1 37.62 15.3C38.0867 15.5 38.4867 15.7667 38.82 16.1C39.1533 16.4333 39.4199 16.8333 39.6199 17.3C39.8199 17.7667 39.9199 18.2533 39.9199 18.76C39.9199 19.2933 39.8199 19.7867 39.6199 20.24C39.4199 20.6933 39.1533 21.0867 38.82 21.42C38.4867 21.7533 38.0867 22.02 37.62 22.22C37.1533 22.42 36.6667 22.52 36.16 22.52L24.92 22.52L24.92 33.76C24.92 34.2933 24.82 34.7867 24.62 35.24C24.42 35.6933 24.1533 36.0867 23.82 36.42C23.4867 36.7533 23.0867 37.02 22.62 37.22C22.1533 37.42 21.6667 37.52 21.16 37.52C20.6267 37.52 20.1333 37.42 19.68 37.22C19.2267 37.02 18.8333 36.7533 18.5 36.42C18.1667 36.0867 17.9 35.6933 17.7 35.24C17.5 34.7867 17.4 34.2933 17.4 33.76L17.4 22.52L6.16002 22.52C5.62669 22.52 5.13335 22.42 4.68002 22.22C4.22669 22.02 3.83336 21.7533 3.50002 21.42C3.16669 21.0867 2.90002 20.6933 2.70002 20.24C2.50002 19.7867 2.40002 19.2933 2.40002 18.76C2.40002 18.2533 2.50002 17.7667 2.70002 17.3C2.90002 16.8333 3.16669 16.4333 3.50002 16.1C3.83336 15.7667 4.22669 15.5 4.68002 15.3C5.13335 15.1 5.62669 15 6.16002 15L17.4 15L17.4 3.76C17.4 3.25333 17.5 2.76667 17.7 2.3C17.9 1.83333 18.1667 1.43333 18.5 1.1C18.8333 0.766668 19.2267 0.5 19.68 0.3C20.1333 0.1 20.6267 3.72526e-08 21.16 0C22.2 0 23.0867 0.366667 23.82 1.1C24.5533 1.83333 24.92 2.72 24.92 3.76L24.92 15L36.16 15Z"   fill="#D68829" >
</path>
</svg>
