<svg xmlns="http://www.w3.org/2000/svg" xmlns:xlink="http://www.w3.org/1999/xlink" width="16" height="16" viewBox="0 0 16 16" fill="none">
<path d="M4.88888 15.5554C4.6222 15.5554 4.44442 15.4666 4.26666 15.2888C3.91109 14.9332 3.99999 14.3999 4.35555 14.0443L10.0444 8.88877C10.2222 8.71099 10.3111 8.53321 10.3111 8.35543C10.3111 8.17766 10.2222 7.99988 10.0444 7.8221L4.26666 2.93321C3.91109 2.57766 3.8222 2.04432 4.17777 1.68877C4.53331 1.33321 5.06666 1.24433 5.4222 1.59988L11.1111 6.48877C11.6444 6.93321 12 7.64432 12 8.35544C12 9.06655 11.7333 9.68877 11.2 10.2221L5.51109 15.3777C5.33331 15.4666 5.06666 15.5554 4.88888 15.5554Z"   fill="#D68829" >
</path>
</svg>
