<svg xmlns="http://www.w3.org/2000/svg" xmlns:xlink="http://www.w3.org/1999/xlink" width="30" height="30" viewBox="0 0 30 30" fill="none">
<path d="M20.5187 11.5583L5.09852 11.5583L12.5971 4.89313C12.9601 4.57051 12.9928 4.01478 12.6701 3.65182C12.3475 3.28895 11.7919 3.25611 11.4289 3.57878L2.23904 11.7473C2.03512 11.9084 1.90405 12.1576 1.90405 12.4376C1.90405 12.438 1.90408 12.4384 1.90408 12.4388C1.90408 12.4391 1.90405 12.4395 1.90405 12.4399C1.90405 12.4538 1.9045 12.4676 1.90516 12.4814C1.90519 12.4819 1.90519 12.4824 1.90519 12.4829C1.9167 12.7182 2.02217 12.9398 2.19917 13.097L11.4289 21.301C11.5964 21.4499 11.8049 21.5231 12.0126 21.5231C12.255 21.5231 12.4964 21.4234 12.6701 21.2279C12.9927 20.865 12.96 20.3092 12.5971 19.9867L5.09334 13.3168L20.5187 13.3168C23.7185 13.3168 26.3216 15.92 26.3216 19.1198C26.3216 22.3196 23.7185 24.9228 20.5187 24.9228L10.3806 24.9228C9.89503 24.9228 9.50137 25.3164 9.50137 25.802C9.50137 26.2876 9.89503 26.6812 10.3806 26.6812L20.5187 26.6812C24.6881 26.6812 28.0801 23.2892 28.0801 19.1198C28.0801 14.9504 24.6881 11.5583 20.5187 11.5583Z"   fill="#F2BD35" >
</path>
</svg>
