<svg xmlns="http://www.w3.org/2000/svg" xmlns:xlink="http://www.w3.org/1999/xlink" width="170" height="152" viewBox="0 0 170 152" fill="none">
<path d="M122.058 58.7857C122.111 58.085 122.138 57.3918 122.138 56.7001C122.138 47.9156 118.311 39.6566 111.365 33.4445C104.417 27.2323 95.18 23.8123 85.3552 23.8123C75.5304 23.8123 66.2933 27.2338 59.3456 33.4445C52.3978 39.6566 48.5728 47.9156 48.5728 56.7001C48.5728 57.3918 48.5994 58.085 48.6525 58.7857C30.2148 59.4269 15.4411 73.0371 15.4411 89.6755C15.4411 106.721 30.9503 120.589 50.0155 120.589L120.693 120.589C139.757 120.589 155.268 106.722 155.268 89.6755C155.268 73.0371 140.492 59.4269 122.058 58.7857Z"   fill="#FCFAF2" >
</path>
</svg>
