<svg xmlns="http://www.w3.org/2000/svg" xmlns:xlink="http://www.w3.org/1999/xlink" width="30.33489990234375" height="27.863037109375" viewBox="0 0 30.33489990234375 27.863037109375" fill="none">
<path d="M15.1658 3.09053L17.3025 7.41855C18.1887 9.21357 19.8999 10.4575 21.8786 10.7443L26.6546 11.4372L23.1999 14.8049C21.7659 16.2003 21.1149 18.2145 21.4533 20.1867L22.2686 24.9434L17.9986 22.6972C17.1284 22.2395 16.152 21.9979 15.1691 21.9979C14.1862 21.9979 13.2097 22.2395 12.3396 22.6972L8.06634 24.9434L8.88167 20.1867C9.22005 18.2145 8.56585 16.2035 7.13499 14.8049L3.68029 11.4372L8.45306 10.7443C10.4318 10.4575 12.143 9.21357 13.0292 7.41855L15.1658 3.09053ZM15.1658 0C14.3924 0 13.6158 0.402832 13.2194 1.21172L10.7186 6.27773C10.2094 7.31221 9.22327 8.02764 8.08245 8.19199L2.49113 9.0041C0.709005 9.26191 2.01464e-05 11.4533 1.28908 12.7069L5.33353 16.6515C6.15853 17.4571 6.53558 18.6141 6.33899 19.7484L5.38509 25.3172C5.14339 26.7223 6.25843 27.8599 7.52493 27.8599C7.86009 27.8599 8.20491 27.7793 8.53685 27.6053L13.5384 24.9756C14.0476 24.7081 14.6083 24.5728 15.1658 24.5728C15.7234 24.5728 16.2841 24.7081 16.7933 24.9756L21.7949 27.6085C22.1268 27.7825 22.4716 27.8631 22.8068 27.8631C24.0733 27.8631 25.1883 26.7223 24.9466 25.3204L23.9927 19.7517C23.7993 18.6173 24.1732 17.4571 24.9982 16.6547L29.0458 12.7102C30.3349 11.4533 29.6227 9.26514 27.8438 9.00732L22.2525 8.19521C21.1117 8.03086 20.1255 7.31221 19.6163 6.28096L17.1156 1.21494C16.7159 0.402832 15.9425 0 15.1658 0Z"   fill="#F5EFDA" >
</path>
</svg>
