<svg xmlns="http://www.w3.org/2000/svg" xmlns:xlink="http://www.w3.org/1999/xlink" width="29.07379150390625" height="27.863037109375" viewBox="0 0 29.07379150390625 27.863037109375" fill="none">
<path d="M14.5357 3.09053L16.6723 7.41855C17.5585 9.21357 19.2697 10.4575 21.2485 10.7443L26.0244 11.4372L22.5697 14.8049C21.1357 16.2003 20.4847 18.2145 20.8231 20.1867L21.6384 24.9434L17.3684 22.6972C16.4983 22.2395 15.5218 21.9979 14.5389 21.9979C13.556 21.9979 12.5795 22.2395 11.7094 22.6972L7.43615 24.9434L8.25148 20.1867C8.58986 18.2145 7.93566 16.2035 6.5048 14.8049L3.05011 11.4372L7.82287 10.7443C9.80158 10.4575 11.5128 9.21357 12.399 7.41855L14.5357 3.09053ZM14.5357 0C13.7622 0 12.9856 0.402832 12.5892 1.21172L10.0884 6.27773C9.57922 7.31221 8.59308 8.02764 7.45226 8.19199L1.86095 9.0041C0.0788165 9.26191 -0.630168 11.4533 0.658895 12.7069L4.70334 16.6515C5.52834 17.4571 5.90539 18.6141 5.70881 19.7484L4.7549 25.3172C4.5132 26.7223 5.62824 27.8599 6.89474 27.8599C7.2299 27.8599 7.57472 27.7793 7.90666 27.6053L12.9082 24.9756C13.4174 24.7081 13.9781 24.5728 14.5357 24.5728C15.0932 24.5728 15.6539 24.7081 16.1631 24.9756L21.1647 27.6085C21.4966 27.7825 21.8414 27.8631 22.1766 27.8631C23.4431 27.8631 24.5581 26.7223 24.3164 25.3204L23.3625 19.7517C23.1692 18.6173 23.543 17.4571 24.368 16.6547L28.4156 12.7102C29.7047 11.4533 28.9925 9.26514 27.2136 9.00732L21.6223 8.19521C20.4815 8.03086 19.4953 7.31221 18.9862 6.28096L16.4854 1.21494C16.0858 0.402832 15.3123 0 14.5357 0Z"   fill="#E33C64" >
</path>
</svg>
