<svg xmlns="http://www.w3.org/2000/svg" xmlns:xlink="http://www.w3.org/1999/xlink" width="33.0013427734375" height="30.24951171875" viewBox="0 0 33.0013427734375 30.24951171875" fill="none">
<path d="M15.5197 29.8471L10.4308 24.7459L2.75282 24.7459C2.70775 24.7459 2.6627 24.7449 2.61768 24.7427C2.57267 24.7406 2.52773 24.7374 2.48287 24.733C2.43801 24.7286 2.39329 24.7232 2.3487 24.7166C2.30411 24.7101 2.25971 24.7024 2.21549 24.6937C2.17128 24.6849 2.12731 24.6751 2.08358 24.6642C2.03985 24.6533 1.99641 24.6413 1.95327 24.6282C1.91013 24.6152 1.86734 24.6011 1.82489 24.586C1.78244 24.5708 1.74039 24.5546 1.69874 24.5374C1.65709 24.5202 1.61588 24.502 1.57513 24.4827C1.53437 24.4635 1.49412 24.4433 1.45436 24.422C1.4146 24.4008 1.37538 24.3787 1.33672 24.3555C1.29805 24.3323 1.25997 24.3082 1.22249 24.2832C1.18501 24.2582 1.14816 24.2323 1.11195 24.2054C1.07575 24.1786 1.04022 24.1509 1.00538 24.1223C0.970532 24.0937 0.93641 24.0643 0.903014 24.034C0.869617 24.0038 0.836982 23.9727 0.805113 23.9408C0.773244 23.909 0.742181 23.8763 0.711917 23.8429C0.681653 23.8095 0.652227 23.7754 0.623642 23.7406C0.595057 23.7057 0.567345 23.6702 0.540507 23.634C0.513672 23.5978 0.487739 23.5609 0.462715 23.5234C0.437691 23.486 0.413602 23.4479 0.390447 23.4092C0.367296 23.3705 0.345108 23.3313 0.323886 23.2916C0.302663 23.2518 0.282429 23.2116 0.263186 23.1708C0.243944 23.1301 0.225714 23.0888 0.208498 23.0472C0.191282 23.0055 0.1751 22.9635 0.159953 22.921C0.144805 22.8786 0.13071 22.8358 0.117668 22.7927C0.104625 22.7495 0.0926512 22.7061 0.0817457 22.6624C0.0708396 22.6186 0.0610153 22.5746 0.0522726 22.5304C0.0435298 22.4862 0.0358792 22.4418 0.0293205 22.3972C0.0227618 22.3526 0.0173032 22.3079 0.0129446 22.2631C0.00858602 22.2182 0.00533269 22.1733 0.00318464 22.1282C0.00103659 22.0833 -3.57136e-06 22.0382 6.41393e-05 21.9931L0.0138141 2.75138C0.0138141 1.22787 1.23756 0 2.76656 0L30.2487 0C31.7694 0 33.0013 1.22787 33.0001 2.75274L32.9862 21.9959C32.9862 23.5152 31.7543 24.7459 30.2349 24.7459L22.5721 24.7459L17.4626 29.8471C17.4467 29.863 17.4304 29.8785 17.4137 29.8936C17.3971 29.9087 17.38 29.9234 17.3627 29.9377C17.3453 29.9519 17.3276 29.9658 17.3095 29.9792C17.2914 29.9926 17.2731 30.0055 17.2544 30.018C17.2357 30.0305 17.2167 30.0425 17.1974 30.0541C17.1781 30.0656 17.1586 30.0767 17.1388 30.0873C17.1189 30.0979 17.0989 30.1081 17.0785 30.1177C17.0582 30.1273 17.0377 30.1364 17.0169 30.145C16.9961 30.1536 16.9751 30.1617 16.954 30.1693C16.9328 30.1769 16.9114 30.1839 16.8899 30.1904C16.8684 30.1969 16.8468 30.2029 16.8249 30.2084C16.8031 30.2139 16.7812 30.2188 16.7592 30.2232C16.7371 30.2275 16.7149 30.2314 16.6927 30.2347C16.6705 30.238 16.6482 30.2408 16.6258 30.243C16.6034 30.2452 16.581 30.2468 16.5585 30.2479C16.5361 30.249 16.5136 30.2496 16.4911 30.2496C16.4686 30.2496 16.4462 30.249 16.4237 30.2479C16.4013 30.2468 16.3789 30.2452 16.3565 30.243C16.3341 30.2408 16.3118 30.238 16.2895 30.2347C16.2673 30.2314 16.2451 30.2275 16.2231 30.2232C16.201 30.2188 16.1791 30.2139 16.1573 30.2084C16.1355 30.2029 16.1138 30.1969 16.0923 30.1904C16.0708 30.1839 16.0495 30.1769 16.0283 30.1693C16.0071 30.1617 15.9861 30.1536 15.9654 30.145C15.9446 30.1364 15.924 30.1273 15.9037 30.1177C15.8834 30.1081 15.8633 30.0979 15.8435 30.0873C15.8237 30.0767 15.8041 30.0656 15.7848 30.0541C15.7655 30.0425 15.7465 30.0305 15.7278 30.018C15.7092 30.0055 15.6908 29.9926 15.6727 29.9792C15.6547 29.9658 15.6369 29.9519 15.6196 29.9377C15.6022 29.9234 15.5852 29.9087 15.5685 29.8936C15.5519 29.8785 15.5356 29.863 15.5197 29.8471ZM30.2377 21.9931L30.2501 2.75138C30.2501 2.75138 2.76381 2.74726 2.76381 2.75274C2.76381 2.75274 2.75144 21.9945 2.75419 21.9945L11 21.9945C11.3644 21.9945 11.7151 22.1389 11.9722 22.3974L16.4945 26.9294L21.032 22.396C21.048 22.3801 21.0643 22.3646 21.0809 22.3495C21.0976 22.3345 21.1147 22.3198 21.1321 22.3055C21.1495 22.2913 21.1672 22.2774 21.1853 22.2641C21.2034 22.2507 21.2217 22.2378 21.2405 22.2253C21.2592 22.2128 21.2782 22.2008 21.2975 22.1892C21.3168 22.1777 21.3364 22.1667 21.3562 22.156C21.376 22.1455 21.3961 22.1354 21.4165 22.1258C21.4368 22.1162 21.4574 22.1071 21.4782 22.0985C21.4989 22.0899 21.52 22.0819 21.5411 22.0743C21.5623 22.0668 21.5837 22.0597 21.6052 22.0532C21.6267 22.0467 21.6484 22.0407 21.6702 22.0353C21.692 22.0299 21.714 22.025 21.736 22.0206C21.7581 22.0162 21.7803 22.0124 21.8025 22.0091C21.8248 22.0059 21.8471 22.0031 21.8695 22.0009C21.8919 21.9988 21.9143 21.9972 21.9367 21.9961C21.9592 21.995 21.9817 21.9945 22.0042 21.9945L30.2377 21.9945L30.2377 21.9931ZM8.93755 15.125C8.90381 15.125 8.87007 15.1242 8.83636 15.1225C8.80265 15.1209 8.769 15.1184 8.73539 15.1151C8.70181 15.1118 8.66833 15.1076 8.63494 15.1027C8.60152 15.0977 8.5683 15.092 8.5352 15.0854C8.5021 15.0788 8.46917 15.0714 8.43643 15.0632C8.40368 15.055 8.37117 15.046 8.33884 15.0362C8.30655 15.0264 8.27452 15.0158 8.24271 15.0044C8.21094 14.9931 8.17945 14.9809 8.14829 14.968C8.11709 14.9551 8.08625 14.9414 8.05573 14.927C8.02522 14.9126 7.99508 14.8974 7.96531 14.8815C7.93553 14.8655 7.90617 14.8489 7.87723 14.8316C7.84826 14.8142 7.81977 14.7961 7.7917 14.7774C7.76363 14.7586 7.73605 14.7392 7.70894 14.7191C7.68184 14.699 7.65522 14.6782 7.62912 14.6568C7.60305 14.6354 7.57749 14.6134 7.55248 14.5907C7.52744 14.568 7.50302 14.5448 7.47914 14.5209C7.45529 14.4971 7.43202 14.4726 7.40933 14.4476C7.38668 14.4226 7.36464 14.397 7.34324 14.3709C7.32181 14.3448 7.30105 14.3183 7.28094 14.2911C7.26083 14.264 7.2414 14.2364 7.22265 14.2083C7.20389 14.1803 7.18584 14.1518 7.16851 14.1228C7.15113 14.0939 7.13451 14.0645 7.11859 14.0347C7.1027 14.005 7.08752 13.9749 7.07308 13.9443C7.05864 13.9138 7.04498 13.883 7.03206 13.8518C7.01913 13.8206 7.00699 13.7891 6.99561 13.7573C6.98423 13.7256 6.97366 13.6935 6.96387 13.6612C6.95407 13.6289 6.94508 13.5964 6.93686 13.5636C6.92868 13.5309 6.9213 13.498 6.91469 13.4649C6.90811 13.4318 6.90235 13.3985 6.89738 13.3651C6.89245 13.3317 6.88833 13.2983 6.88501 13.2646C6.88169 13.2311 6.87921 13.1974 6.87753 13.1637C6.87589 13.13 6.87505 13.0963 6.87505 13.0625C6.87505 13.0287 6.87589 12.995 6.87753 12.9613C6.87921 12.9276 6.88169 12.8939 6.88501 12.8603C6.88833 12.8268 6.89245 12.7932 6.89738 12.7598C6.90235 12.7265 6.90811 12.6932 6.91469 12.6601C6.9213 12.627 6.92868 12.5941 6.93686 12.5613C6.94508 12.5286 6.95407 12.4961 6.96387 12.4638C6.97366 12.4315 6.98423 12.3994 6.99561 12.3677C7.00699 12.3359 7.01913 12.3044 7.03206 12.2732C7.04498 12.242 7.05864 12.2112 7.07308 12.1806C7.08752 12.1502 7.1027 12.12 7.11859 12.0902C7.13451 12.0605 7.15113 12.0311 7.16851 12.0021C7.18584 11.9732 7.20389 11.9447 7.22265 11.9166C7.2414 11.8886 7.26083 11.861 7.28094 11.8339C7.30105 11.8067 7.32181 11.7802 7.34324 11.7541C7.36464 11.728 7.38668 11.7024 7.40933 11.6774C7.43202 11.6524 7.45529 11.628 7.47917 11.6041C7.50302 11.5802 7.52744 11.557 7.55248 11.5343C7.57749 11.5116 7.60305 11.4896 7.62912 11.4681C7.65522 11.4467 7.68184 11.426 7.70894 11.4059C7.73605 11.3858 7.76363 11.3663 7.7917 11.3476C7.81977 11.3288 7.84826 11.3108 7.87723 11.2934C7.90617 11.2761 7.93553 11.2594 7.96531 11.2435C7.99508 11.2276 8.02522 11.2125 8.05573 11.198C8.08625 11.1836 8.11709 11.1699 8.14829 11.157C8.17945 11.1441 8.21094 11.1319 8.24271 11.1205C8.27452 11.1092 8.30655 11.0986 8.33884 11.0888C8.37117 11.079 8.40368 11.07 8.43643 11.0618C8.46917 11.0536 8.5021 11.0462 8.5352 11.0396C8.5683 11.0331 8.60152 11.0273 8.63494 11.0223C8.66833 11.0174 8.70181 11.0132 8.73539 11.0099C8.769 11.0066 8.80265 11.0041 8.83636 11.0025C8.87007 11.0008 8.90381 11 8.93755 11C8.97129 11 9.00503 11.0008 9.03877 11.0025C9.07248 11.0041 9.10613 11.0066 9.13971 11.0099C9.17332 11.0132 9.2068 11.0174 9.24019 11.0223C9.27358 11.0273 9.30683 11.0331 9.33993 11.0396C9.37303 11.0462 9.40596 11.0536 9.43871 11.0618C9.47145 11.07 9.50396 11.079 9.53629 11.0888C9.56858 11.0986 9.60061 11.1092 9.63239 11.1205C9.66419 11.1319 9.69568 11.1441 9.72684 11.157C9.75804 11.1699 9.78888 11.1836 9.8194 11.198C9.84992 11.2125 9.88005 11.2276 9.90983 11.2435C9.93957 11.2594 9.96893 11.2761 9.9979 11.2934C10.0268 11.3108 10.0554 11.3288 10.0834 11.3476C10.1115 11.3663 10.1391 11.3858 10.1662 11.4059C10.1933 11.426 10.2199 11.4467 10.246 11.4681C10.2721 11.4896 10.2976 11.5116 10.3226 11.5343C10.3477 11.557 10.3721 11.5802 10.396 11.6041C10.4198 11.628 10.4431 11.6524 10.4658 11.6774C10.4884 11.7024 10.5105 11.728 10.5319 11.7541C10.5533 11.7802 10.5741 11.8067 10.5942 11.8339C10.6143 11.861 10.6337 11.8886 10.6525 11.9166C10.6712 11.9447 10.6893 11.9732 10.7066 12.0021C10.724 12.0311 10.7406 12.0605 10.7565 12.0902C10.7724 12.12 10.7876 12.1502 10.802 12.1806C10.8165 12.2112 10.8302 12.242 10.8431 12.2732C10.856 12.3044 10.8681 12.3359 10.8795 12.3677C10.8909 12.3994 10.9014 12.4315 10.9113 12.4638C10.9211 12.4961 10.9301 12.5286 10.9382 12.5613C10.9465 12.5941 10.9538 12.627 10.9604 12.6601C10.967 12.6932 10.9728 12.7265 10.9777 12.7598C10.9827 12.7932 10.9868 12.8268 10.9901 12.8603C10.9934 12.8939 10.9959 12.9276 10.9976 12.9613C10.9992 12.995 11 13.0287 11 13.0625C11 13.0963 10.9992 13.13 10.9976 13.1637C10.9959 13.1974 10.9934 13.2311 10.9901 13.2646C10.9868 13.2983 10.9827 13.3317 10.9777 13.3651C10.9728 13.3985 10.967 13.4318 10.9604 13.4649C10.9538 13.498 10.9465 13.5309 10.9382 13.5636C10.9301 13.5964 10.9211 13.6289 10.9113 13.6612C10.9014 13.6935 10.8909 13.7256 10.8795 13.7573C10.8681 13.7891 10.856 13.8206 10.8431 13.8518C10.8302 13.883 10.8165 13.9138 10.802 13.9443C10.7876 13.9749 10.7724 14.005 10.7565 14.0347C10.7406 14.0645 10.724 14.0939 10.7066 14.1228C10.6893 14.1518 10.6712 14.1803 10.6525 14.2083C10.6337 14.2364 10.6143 14.264 10.5942 14.2911C10.5741 14.3183 10.5533 14.3448 10.5319 14.3709C10.5105 14.397 10.4884 14.4226 10.4658 14.4476C10.4431 14.4726 10.4198 14.4971 10.396 14.5209C10.3721 14.5448 10.3477 14.568 10.3226 14.5907C10.2976 14.6134 10.2721 14.6354 10.246 14.6568C10.2199 14.6782 10.1933 14.699 10.1662 14.7191C10.1391 14.7392 10.1115 14.7586 10.0834 14.7774C10.0554 14.7961 10.0268 14.8142 9.9979 14.8316C9.96893 14.8489 9.93957 14.8655 9.90983 14.8815C9.88005 14.8974 9.84992 14.9126 9.8194 14.927C9.78888 14.9414 9.75804 14.9551 9.72684 14.968C9.69568 14.9809 9.66419 14.9931 9.63239 15.0044C9.60061 15.0158 9.56858 15.0264 9.53629 15.0362C9.50396 15.046 9.47145 15.055 9.43871 15.0632C9.40596 15.0714 9.37303 15.0788 9.33993 15.0854C9.30683 15.092 9.27358 15.0977 9.24019 15.1027C9.2068 15.1076 9.17332 15.1118 9.13971 15.1151C9.10613 15.1184 9.07248 15.1209 9.03877 15.1225C9.00503 15.1242 8.97129 15.125 8.93755 15.125ZM16.5001 15.125C16.4663 15.125 16.4326 15.1242 16.3989 15.1225C16.3651 15.1209 16.3315 15.1184 16.2979 15.1151C16.2643 15.1118 16.2308 15.1076 16.1974 15.1027C16.164 15.0977 16.1308 15.092 16.0977 15.0854C16.0646 15.0788 16.0316 15.0714 15.9989 15.0632C15.9662 15.055 15.9336 15.046 15.9014 15.0362C15.869 15.0264 15.837 15.0158 15.8052 15.0044C15.7734 14.9931 15.742 14.9809 15.7108 14.968C15.6796 14.9551 15.6487 14.9414 15.6182 14.927C15.5877 14.9126 15.5576 14.8974 15.5278 14.8815C15.498 14.8655 15.4687 14.8489 15.4397 14.8316C15.4108 14.8142 15.3822 14.7961 15.3542 14.7774C15.3261 14.7586 15.2985 14.7392 15.2714 14.7191C15.2443 14.699 15.2177 14.6782 15.1916 14.6568C15.1655 14.6354 15.14 14.6134 15.115 14.5907C15.09 14.568 15.0655 14.5448 15.0416 14.5209C15.0178 14.4971 14.9945 14.4726 14.9718 14.4476C14.9492 14.4226 14.9271 14.397 14.9057 14.3709C14.8843 14.3448 14.8636 14.3183 14.8435 14.2911C14.8233 14.264 14.8039 14.2364 14.7852 14.2083C14.7664 14.1803 14.7484 14.1518 14.731 14.1228C14.7136 14.0939 14.697 14.0645 14.6811 14.0347C14.6652 14.005 14.65 13.9749 14.6356 13.9443C14.6212 13.9138 14.6075 13.883 14.5946 13.8518C14.5816 13.8206 14.5695 13.7891 14.5581 13.7573C14.5467 13.7256 14.5362 13.6935 14.5264 13.6612C14.5166 13.6289 14.5076 13.5964 14.4994 13.5636C14.4912 13.5309 14.4838 13.498 14.4772 13.4649C14.4706 13.4318 14.4648 13.3985 14.4599 13.3651C14.4549 13.3317 14.4508 13.2983 14.4475 13.2646C14.4442 13.2311 14.4417 13.1974 14.44 13.1637C14.4384 13.13 14.4376 13.0963 14.4376 13.0625C14.4376 13.0287 14.4384 12.995 14.44 12.9613C14.4417 12.9276 14.4442 12.8939 14.4475 12.8603C14.4508 12.8268 14.4549 12.7932 14.4599 12.7598C14.4648 12.7265 14.4706 12.6932 14.4772 12.6601C14.4838 12.627 14.4912 12.5941 14.4994 12.5613C14.5076 12.5286 14.5166 12.4961 14.5264 12.4638C14.5362 12.4315 14.5467 12.3994 14.5581 12.3677C14.5695 12.3359 14.5816 12.3044 14.5946 12.2732C14.6075 12.242 14.6212 12.2112 14.6356 12.1806C14.65 12.1502 14.6652 12.12 14.6811 12.0902C14.697 12.0605 14.7136 12.0311 14.731 12.0021C14.7484 11.9732 14.7664 11.9447 14.7852 11.9166C14.8039 11.8886 14.8233 11.861 14.8435 11.8339C14.8636 11.8067 14.8843 11.7802 14.9057 11.7541C14.9271 11.728 14.9492 11.7024 14.9718 11.6774C14.9945 11.6524 15.0178 11.628 15.0416 11.6041C15.0655 11.5802 15.09 11.557 15.115 11.5343C15.14 11.5116 15.1655 11.4896 15.1916 11.4681C15.2177 11.4467 15.2443 11.426 15.2714 11.4059C15.2985 11.3858 15.3261 11.3663 15.3542 11.3476C15.3822 11.3288 15.4108 11.3108 15.4397 11.2934C15.4687 11.2761 15.498 11.2594 15.5278 11.2435C15.5576 11.2276 15.5877 11.2125 15.6182 11.198C15.6487 11.1836 15.6796 11.1699 15.7108 11.157C15.742 11.1441 15.7734 11.1319 15.8052 11.1205C15.837 11.1092 15.869 11.0986 15.9014 11.0888C15.9336 11.079 15.9662 11.07 15.9989 11.0618C16.0316 11.0536 16.0646 11.0462 16.0977 11.0396C16.1308 11.0331 16.164 11.0273 16.1974 11.0223C16.2308 11.0174 16.2643 11.0132 16.2979 11.0099C16.3315 11.0066 16.3651 11.0041 16.3989 11.0025C16.4326 11.0008 16.4663 11 16.5001 11C16.5338 11 16.5675 11.0008 16.6013 11.0025C16.635 11.0041 16.6686 11.0066 16.7022 11.0099C16.7358 11.0132 16.7693 11.0174 16.8027 11.0223C16.8361 11.0273 16.8693 11.0331 16.9024 11.0396C16.9355 11.0462 16.9685 11.0536 17.0012 11.0618C17.034 11.07 17.0665 11.079 17.0988 11.0888C17.1311 11.0986 17.1631 11.1092 17.1949 11.1205C17.2267 11.1319 17.2582 11.1441 17.2894 11.157C17.3205 11.1699 17.3514 11.1836 17.3819 11.198C17.4124 11.2125 17.4426 11.2276 17.4723 11.2435C17.5021 11.2594 17.5314 11.2761 17.5604 11.2934C17.5893 11.3108 17.6179 11.3288 17.6459 11.3476C17.674 11.3663 17.7016 11.3858 17.7287 11.4059C17.7558 11.426 17.7824 11.4467 17.8085 11.4681C17.8346 11.4896 17.8601 11.5116 17.8852 11.5343C17.9102 11.557 17.9346 11.5802 17.9585 11.6041C17.9824 11.628 18.0056 11.6524 18.0283 11.6774C18.0509 11.7024 18.073 11.728 18.0944 11.7541C18.1158 11.7802 18.1366 11.8067 18.1567 11.8339C18.1768 11.861 18.1962 11.8886 18.215 11.9166C18.2337 11.9447 18.2518 11.9732 18.2691 12.0021C18.2865 12.0311 18.3031 12.0605 18.319 12.0902C18.3349 12.12 18.3501 12.1502 18.3645 12.1806C18.379 12.2112 18.3926 12.242 18.4056 12.2732C18.4185 12.3044 18.4306 12.3359 18.442 12.3677C18.4534 12.3994 18.4639 12.4315 18.4737 12.4638C18.4835 12.4961 18.4925 12.5286 18.5007 12.5613C18.509 12.5941 18.5163 12.627 18.5229 12.6601C18.5295 12.6932 18.5353 12.7265 18.5402 12.7598C18.5452 12.7932 18.5493 12.8268 18.5526 12.8603C18.556 12.8939 18.5584 12.9276 18.5601 12.9613C18.5617 12.995 18.5626 13.0287 18.5626 13.0625C18.5626 13.0963 18.5617 13.13 18.5601 13.1637C18.5584 13.1974 18.556 13.2311 18.5526 13.2646C18.5493 13.2983 18.5452 13.3317 18.5402 13.3651C18.5353 13.3985 18.5295 13.4318 18.5229 13.4649C18.5163 13.498 18.509 13.5309 18.5007 13.5636C18.4925 13.5964 18.4835 13.6289 18.4737 13.6612C18.4639 13.6935 18.4534 13.7256 18.442 13.7573C18.4306 13.7891 18.4185 13.8206 18.4056 13.8518C18.3926 13.883 18.379 13.9138 18.3645 13.9443C18.3501 13.9749 18.3349 14.005 18.319 14.0347C18.3031 14.0645 18.2865 14.0939 18.2691 14.1228C18.2518 14.1518 18.2337 14.1803 18.215 14.2083C18.1962 14.2364 18.1768 14.264 18.1567 14.2911C18.1366 14.3183 18.1158 14.3448 18.0944 14.3709C18.073 14.397 18.0509 14.4226 18.0283 14.4476C18.0056 14.4726 17.9824 14.4971 17.9585 14.5209C17.9346 14.5448 17.9102 14.568 17.8852 14.5907C17.8601 14.6134 17.8346 14.6354 17.8085 14.6568C17.7824 14.6782 17.7558 14.699 17.7287 14.7191C17.7016 14.7392 17.674 14.7586 17.6459 14.7774C17.6178 14.7961 17.5893 14.8142 17.5604 14.8316C17.5314 14.8489 17.5021 14.8655 17.4723 14.8815C17.4426 14.8974 17.4124 14.9126 17.3819 14.927C17.3514 14.9414 17.3205 14.9551 17.2894 14.968C17.2582 14.9809 17.2267 14.9931 17.1949 15.0044C17.1631 15.0158 17.1311 15.0264 17.0988 15.0362C17.0665 15.046 17.034 15.055 17.0012 15.0632C16.9685 15.0714 16.9355 15.0788 16.9024 15.0854C16.8693 15.092 16.8361 15.0977 16.8027 15.1027C16.7693 15.1076 16.7358 15.1118 16.7022 15.1151C16.6686 15.1184 16.635 15.1209 16.6013 15.1225C16.5675 15.1242 16.5338 15.125 16.5001 15.125ZM24.0626 15.125C24.0288 15.125 23.9951 15.1242 23.9613 15.1225C23.9276 15.1209 23.894 15.1184 23.8604 15.1151C23.8268 15.1118 23.7933 15.1076 23.7599 15.1027C23.7265 15.0977 23.6933 15.092 23.6602 15.0854C23.6271 15.0788 23.5942 15.0714 23.5614 15.0632C23.5287 15.055 23.4962 15.046 23.4639 15.0362C23.4315 15.0264 23.3995 15.0158 23.3677 15.0044C23.3359 14.9931 23.3044 14.9809 23.2733 14.968C23.2421 14.9551 23.2112 14.9414 23.1807 14.927C23.1502 14.9126 23.1201 14.8974 23.0903 14.8815C23.0606 14.8655 23.0312 14.8489 23.0022 14.8316C22.9732 14.8142 22.9448 14.7961 22.9167 14.7774C22.8886 14.7586 22.861 14.7392 22.8339 14.7191C22.8068 14.699 22.7802 14.6782 22.7541 14.6568C22.728 14.6354 22.7025 14.6134 22.6775 14.5907C22.6525 14.568 22.628 14.5448 22.6042 14.5209C22.5803 14.4971 22.557 14.4726 22.5344 14.4476C22.5117 14.4226 22.4897 14.397 22.4682 14.3709C22.4468 14.3448 22.426 14.3183 22.4059 14.2911C22.3858 14.264 22.3664 14.2364 22.3477 14.2083C22.3289 14.1803 22.3109 14.1518 22.2935 14.1228C22.2761 14.0939 22.2595 14.0645 22.2436 14.0347C22.2277 14.005 22.2125 13.9749 22.1981 13.9443C22.1837 13.9138 22.17 13.883 22.157 13.8518C22.1441 13.8206 22.132 13.7891 22.1206 13.7573C22.1093 13.7256 22.0987 13.6935 22.0889 13.6612C22.0791 13.6289 22.0701 13.5964 22.0619 13.5636C22.0537 13.5309 22.0463 13.498 22.0397 13.4649C22.0331 13.4318 22.0273 13.3985 22.0224 13.3651C22.0174 13.3317 22.0133 13.2983 22.01 13.2646C22.0067 13.2311 22.0042 13.1974 22.0026 13.1637C22.0009 13.13 22.0001 13.0963 22.0001 13.0625C22.0001 13.0287 22.0009 12.995 22.0026 12.9613C22.0042 12.9276 22.0067 12.8939 22.01 12.8603C22.0133 12.8268 22.0174 12.7932 22.0224 12.7598C22.0273 12.7265 22.0331 12.6932 22.0397 12.6601C22.0463 12.627 22.0537 12.5941 22.0619 12.5613C22.0701 12.5286 22.0791 12.4961 22.0889 12.4638C22.0987 12.4315 22.1093 12.3994 22.1206 12.3677C22.132 12.3359 22.1441 12.3044 22.157 12.2732C22.17 12.242 22.1837 12.2112 22.1981 12.1806C22.2125 12.1502 22.2277 12.12 22.2436 12.0902C22.2595 12.0605 22.2761 12.0311 22.2935 12.0021C22.3109 11.9732 22.3289 11.9447 22.3477 11.9166C22.3664 11.8886 22.3858 11.861 22.4059 11.8339C22.426 11.8067 22.4468 11.7802 22.4682 11.7541C22.4897 11.728 22.5117 11.7024 22.5344 11.6774C22.557 11.6524 22.5803 11.628 22.6042 11.6041C22.628 11.5802 22.6525 11.557 22.6775 11.5343C22.7025 11.5116 22.728 11.4896 22.7541 11.4681C22.7802 11.4467 22.8068 11.426 22.8339 11.4059C22.861 11.3858 22.8886 11.3663 22.9167 11.3476C22.9448 11.3288 22.9732 11.3108 23.0022 11.2934C23.0312 11.2761 23.0606 11.2594 23.0903 11.2435C23.1201 11.2276 23.1502 11.2125 23.1807 11.198C23.2112 11.1836 23.2421 11.1699 23.2733 11.157C23.3044 11.1441 23.3359 11.1319 23.3677 11.1205C23.3995 11.1092 23.4315 11.0986 23.4639 11.0888C23.4962 11.079 23.5287 11.07 23.5614 11.0618C23.5942 11.0536 23.6271 11.0462 23.6602 11.0396C23.6933 11.0331 23.7265 11.0273 23.7599 11.0223C23.7933 11.0174 23.8268 11.0132 23.8604 11.0099C23.894 11.0066 23.9276 11.0041 23.9613 11.0025C23.9951 11.0008 24.0288 11 24.0626 11C24.0963 11 24.1301 11.0008 24.1638 11.0025C24.1975 11.0041 24.2311 11.0066 24.2647 11.0099C24.2983 11.0132 24.3318 11.0174 24.3652 11.0223C24.3986 11.0273 24.4318 11.0331 24.4649 11.0396C24.498 11.0462 24.531 11.0536 24.5637 11.0618C24.5964 11.07 24.629 11.079 24.6613 11.0888C24.6936 11.0986 24.7256 11.1092 24.7574 11.1205C24.7892 11.1319 24.8207 11.1441 24.8518 11.157C24.883 11.1699 24.9139 11.1836 24.9444 11.198C24.9749 11.2125 25.005 11.2276 25.0348 11.2435C25.0646 11.2594 25.094 11.2761 25.1229 11.2934C25.1519 11.3108 25.1803 11.3288 25.2084 11.3476C25.2365 11.3663 25.2641 11.3858 25.2912 11.4059C25.3183 11.426 25.3449 11.4467 25.371 11.4681C25.3971 11.4896 25.4226 11.5116 25.4476 11.5343C25.4727 11.557 25.4971 11.5802 25.521 11.6041C25.5448 11.628 25.5681 11.6524 25.5908 11.6774C25.6134 11.7024 25.6355 11.728 25.6569 11.7541C25.6783 11.7802 25.6991 11.8067 25.7192 11.8339C25.7393 11.861 25.7587 11.8886 25.7775 11.9166C25.7962 11.9447 25.8143 11.9732 25.8316 12.0021C25.849 12.0311 25.8656 12.0605 25.8815 12.0902C25.8974 12.12 25.9126 12.1502 25.927 12.1806C25.9415 12.2112 25.9551 12.242 25.9681 12.2732C25.981 12.3044 25.9931 12.3359 26.0045 12.3677C26.0159 12.3994 26.0265 12.4315 26.0363 12.4638C26.0461 12.4961 26.055 12.5286 26.0633 12.5613C26.0714 12.5941 26.0788 12.627 26.0854 12.6601C26.092 12.6932 26.0978 12.7265 26.1027 12.7598C26.1077 12.7932 26.1118 12.8268 26.1151 12.8603C26.1184 12.8939 26.1209 12.9276 26.1226 12.9613C26.1242 12.995 26.1251 13.0287 26.1251 13.0625C26.1251 13.0963 26.1242 13.13 26.1226 13.1637C26.1209 13.1974 26.1184 13.2311 26.1151 13.2646C26.1118 13.2983 26.1077 13.3317 26.1027 13.3651C26.0978 13.3985 26.092 13.4318 26.0854 13.4649C26.0788 13.498 26.0714 13.5309 26.0633 13.5636C26.055 13.5964 26.0461 13.6289 26.0363 13.6612C26.0265 13.6935 26.0159 13.7256 26.0045 13.7573C25.9931 13.7891 25.981 13.8206 25.9681 13.8518C25.9551 13.883 25.9415 13.9138 25.927 13.9443C25.9126 13.9749 25.8974 14.005 25.8815 14.0347C25.8656 14.0645 25.849 14.0939 25.8316 14.1228C25.8143 14.1518 25.7962 14.1803 25.7775 14.2083C25.7587 14.2364 25.7393 14.264 25.7192 14.2911C25.6991 14.3183 25.6783 14.3448 25.6569 14.3709C25.6355 14.397 25.6134 14.4226 25.5908 14.4476C25.5681 14.4726 25.5448 14.4971 25.521 14.5209C25.4971 14.5448 25.4727 14.568 25.4476 14.5907C25.4226 14.6134 25.3971 14.6354 25.371 14.6568C25.3449 14.6782 25.3183 14.699 25.2912 14.7191C25.2641 14.7392 25.2365 14.7586 25.2084 14.7774C25.1803 14.7961 25.1519 14.8142 25.1229 14.8316C25.094 14.8489 25.0646 14.8655 25.0348 14.8815C25.005 14.8974 24.9749 14.9126 24.9444 14.927C24.9139 14.9414 24.883 14.9551 24.8518 14.968C24.8207 14.9809 24.7892 14.9931 24.7574 15.0044C24.7256 15.0158 24.6936 15.0264 24.6613 15.0362C24.629 15.046 24.5964 15.055 24.5637 15.0632C24.531 15.0714 24.498 15.0788 24.4649 15.0854C24.4318 15.092 24.3986 15.0977 24.3652 15.1027C24.3318 15.1076 24.2983 15.1118 24.2647 15.1151C24.2311 15.1184 24.1975 15.1209 24.1638 15.1225C24.1301 15.1242 24.0963 15.125 24.0626 15.125Z"   fill="#F5EFDA" >
</path>
</svg>
