<svg xmlns="http://www.w3.org/2000/svg" xmlns:xlink="http://www.w3.org/1999/xlink" width="15" height="15" viewBox="0 0 23 23" fill="none">
<path d="M22.7834 2.50847C22.8444 2.64585 22.894 2.80613 22.9322 2.98933C22.9704 3.1725 22.9895 3.36332 22.9895 3.56178C22.9895 3.76021 22.9513 3.95866 22.8749 4.15711C22.7987 4.35557 22.6766 4.54639 22.5087 4.72956C22.3254 4.91273 22.1613 5.07302 22.0163 5.21041C21.8713 5.34781 21.7454 5.46992 21.6385 5.57678C21.5164 5.69892 21.4019 5.80577 21.295 5.89735L17.0131 1.61545C17.1963 1.44753 17.4138 1.24526 17.6657 1.00865C17.9176 0.772041 18.1275 0.585041 18.2954 0.447654C18.5091 0.279736 18.7305 0.16143 18.9595 0.0927365C19.1884 0.0240428 19.4136 -0.00648774 19.6349 0.00114489C19.8563 0.00877754 20.07 0.0431243 20.2761 0.104185C20.4821 0.165247 20.6615 0.23394 20.8142 0.310267C21.1347 0.478185 21.4897 0.772041 21.8789 1.19184C22.2682 1.61163 22.5696 2.05051 22.7834 2.50847ZM4.94592 13.6826C5.03752 13.591 5.25124 13.3735 5.58709 13.0301C5.92291 12.6866 6.34271 12.263 6.84647 11.7592L8.51802 10.0877L10.3727 8.23294L15.2958 3.30989L19.5777 7.6147L14.6547 12.5377L12.8228 14.3925C12.2122 14.9878 11.6626 15.5335 11.1742 16.0297C10.6857 16.5258 10.2811 16.9341 9.96057 17.2547C9.64001 17.5753 9.44918 17.7585 9.38812 17.8043C9.23547 17.9416 9.05993 18.0867 8.86147 18.2393C8.66302 18.392 8.45694 18.5141 8.24323 18.6057C8.02951 18.7125 7.71658 18.8423 7.30441 18.9949C6.89225 19.1476 6.46102 19.2964 6.01068 19.4415C5.56035 19.5865 5.13293 19.7124 4.72841 19.8193C4.32388 19.9261 4.02239 19.9948 3.82393 20.0254C3.41177 20.0712 3.13699 20.0101 2.9996 19.8422C2.86222 19.6742 2.82405 19.3918 2.88512 18.9949C2.91565 18.7812 2.98816 18.4721 3.10266 18.0676C3.21713 17.663 3.33926 17.2433 3.46902 16.8082C3.59877 16.3731 3.72471 15.9724 3.84682 15.6061C3.96895 15.2397 4.06818 14.9878 4.1445 14.8504C4.2361 14.6367 4.33914 14.4421 4.45364 14.2665C4.56811 14.091 4.73221 13.8964 4.94592 13.6826Z"   fill="#FFC300" >
</path>
</svg>
