<svg xmlns="http://www.w3.org/2000/svg" xmlns:xlink="http://www.w3.org/1999/xlink" width="33" height="33" viewBox="0 0 33 33" fill="none">
<path d="M19.753 27.333C15.7583 29.8969 10.4186 29.3173 7.05705 25.9554C3.69552 22.5937 3.11593 17.2547 5.67856 13.2603C5.97904 12.7922 5.84294 12.1691 5.37485 11.8689C4.90653 11.5686 4.28349 11.7045 3.98337 12.1726C0.913121 16.9581 1.60677 23.3535 5.63283 27.3795C7.97644 29.7233 11.1229 30.9377 14.2874 30.9377C16.5593 30.9377 18.8408 30.3116 20.8407 29.0281C21.3089 28.7277 21.4447 28.1046 21.1444 27.6367C20.844 27.1684 20.2208 27.0323 19.753 27.333Z"   fill="#FF9780" >
</path>
<path d="M30.6341 9.41935L27.8255 6.6108L30.6341 3.80218C31.0275 3.40895 31.0275 2.77133 30.6341 2.37811C30.2411 1.98472 29.6031 1.98472 29.2101 2.37811L26.4015 5.18673L23.5926 2.37795C23.1996 1.98489 22.5618 1.98472 22.1684 2.37811C21.7752 2.77133 21.7752 3.40895 22.1685 3.80234L24.9772 6.61097L22.1428 9.44539C17.8684 5.8314 11.5235 5.57456 6.97886 8.96154C6.533 9.29395 6.4409 9.92485 6.77332 10.3709C7.10557 10.8164 7.73612 10.9089 8.18265 10.5764C12.202 7.58008 17.9106 7.99922 21.4619 11.5504C25.0071 15.0957 25.4299 20.7987 22.4457 24.8162C22.114 25.2627 22.2071 25.8936 22.6536 26.2252C22.834 26.3593 23.0446 26.4239 23.2533 26.4239C23.5611 26.4239 23.865 26.2834 24.0626 26.0173C27.4364 21.4755 27.1745 15.1374 23.5669 10.8695L26.4013 8.03509L29.2101 10.8438C29.4066 11.0403 29.6645 11.1387 29.9221 11.1387C30.1798 11.1387 30.4377 11.0403 30.6344 10.8436C31.0276 10.4504 31.0276 9.81274 30.6341 9.41935Z"   fill="#FF9780" >
</path>
<path d="M12.7765 15.6848C13.0342 15.6848 13.2919 15.5864 13.4886 15.3899L14.1834 14.6952C14.5768 14.302 14.5768 13.6643 14.1836 13.271C13.7903 12.8776 13.1529 12.8777 12.7593 13.2708L12.0645 13.9655C11.6711 14.3587 11.6711 14.9963 12.0643 15.3897C12.261 15.5864 12.5186 15.6848 12.7765 15.6848Z"   fill="#FF9780" >
</path>
<path d="M19.0465 20.9478L19.7414 20.2532C20.1347 19.86 20.1347 19.2223 19.7415 18.8289C19.3483 18.4357 18.7108 18.4355 18.3173 18.8288L17.6224 19.5235C17.229 19.9167 17.229 20.5543 17.6223 20.9477C17.819 21.1444 18.0766 21.2427 18.3345 21.2427C18.5922 21.2427 18.8498 21.1444 19.0465 20.9478Z"   fill="#FF9780" >
</path>
<path d="M10.8929 18.3636C10.7371 19.0308 10.7422 20.4284 11.7494 21.4355C12.4841 22.1703 13.4331 22.3767 14.1514 22.3767C14.4128 22.3767 14.6439 22.3493 14.8228 22.3102C15.3662 22.191 15.7101 21.654 15.5911 21.1108C15.4717 20.5674 14.9347 20.2242 14.3917 20.3426C14.384 20.344 13.6433 20.4809 13.1736 20.0113C12.718 19.5558 12.8471 18.8598 12.8568 18.8114C12.9765 18.2733 12.6409 17.7378 12.1028 17.6121C11.5621 17.4854 11.0195 17.8222 10.8929 18.3636Z"   fill="#FF9780" >
</path>
</svg>
