<svg xmlns="http://www.w3.org/2000/svg" xmlns:xlink="http://www.w3.org/1999/xlink" width="29" height="26" viewBox="0 0 29 26" fill="none">
<path d="M28.9873 9.14726C28.9873 4.82258 25.2013 1.30249 20.5545 1.30249C18.2591 1.30249 16.0868 2.19024 14.5184 3.70466C12.9479 2.19027 10.7734 1.30249 8.48233 1.30249C3.83339 1.30249 0.0495605 4.82066 0.0495605 9.14726C0.0495605 9.29233 0.0646688 9.42189 0.0775986 9.52828C0.0754483 9.56311 0.0732981 9.59791 0.0732981 9.63466C0.0732981 10.4005 0.280372 11.2419 0.688098 12.1355C0.701056 12.1683 0.713986 12.1993 0.729094 12.2282C3.29841 17.754 13.1895 24.1115 13.6102 24.4035C13.8712 24.5834 14.1818 24.6723 14.4947 24.6723C14.8118 24.6723 15.1246 24.5795 15.3878 24.3958C15.748 24.1444 24.1851 18.6999 27.5332 13.5493C27.6605 13.3752 27.7554 13.207 27.8396 13.0619C27.8654 13.0155 27.8892 12.9691 27.9172 12.9246L27.928 12.9033C27.9388 12.8859 27.9517 12.8665 27.9647 12.8511C28.1653 12.501 28.3249 12.176 28.4523 11.8588C28.7994 11.0426 28.97 10.3154 28.97 9.63654C28.97 9.58434 28.9678 9.53792 28.9635 9.49921C28.9743 9.4103 28.9873 9.29037 28.9873 9.14726Z"   fill="#E33C64" >
</path>
</svg>
