<svg xmlns="http://www.w3.org/2000/svg" xmlns:xlink="http://www.w3.org/1999/xlink" width="82" height="82" viewBox="0 0 82 82" fill="none">
<path d="M31.1664 34.1085L12.5979 34.1085C12.5677 34.1085 12.5376 34.1077 12.5075 34.1062C12.4774 34.1048 12.4474 34.1025 12.4174 34.0996C12.3874 34.0966 12.3575 34.0929 12.3276 34.0885C12.2978 34.0841 12.2682 34.0789 12.2386 34.0731C12.209 34.0672 12.1796 34.0606 12.1503 34.0533C12.1211 34.0459 12.0921 34.0379 12.0632 34.0292C12.0344 34.0205 12.0058 34.0109 11.9775 34.0008C11.9491 33.9906 11.9209 33.9798 11.8931 33.9683C11.8652 33.9567 11.8377 33.9445 11.8104 33.9317C11.7832 33.9188 11.7563 33.9051 11.7297 33.891C11.7031 33.8768 11.6769 33.8619 11.6511 33.8465C11.6252 33.8309 11.5997 33.8148 11.5747 33.7981C11.5496 33.7813 11.5249 33.764 11.5007 33.746C11.4765 33.728 11.4528 33.7095 11.4295 33.6904C11.4062 33.6712 11.3834 33.6516 11.361 33.6314C11.3387 33.6111 11.3169 33.5904 11.2956 33.569C11.2742 33.5477 11.2534 33.5259 11.2332 33.5036C11.213 33.4812 11.1933 33.4584 11.1742 33.4351C11.1551 33.4118 11.1365 33.3881 11.1185 33.3638C11.1006 33.3396 11.0832 33.315 11.0665 33.2899C11.0498 33.2648 11.0337 33.2394 11.0181 33.2135C11.0026 33.1876 10.9878 33.1615 10.9736 33.1349C10.9594 33.1083 10.9458 33.0814 10.9329 33.0542C10.92 33.0269 10.9079 32.9993 10.8963 32.9715C10.8848 32.9436 10.8739 32.9155 10.8637 32.8871C10.8536 32.8588 10.8441 32.8302 10.8354 32.8014C10.8266 32.7724 10.8186 32.7435 10.8113 32.7142C10.804 32.685 10.7974 32.6555 10.7915 32.626C10.7856 32.5964 10.7805 32.5667 10.776 32.5369C10.7716 32.5071 10.7679 32.4772 10.765 32.4472C10.762 32.4172 10.7598 32.3872 10.7583 32.3571C10.7569 32.327 10.7561 32.2969 10.7561 32.2667C10.7561 32.2365 10.7569 32.2064 10.7583 32.1763C10.7598 32.1462 10.762 32.1161 10.765 32.0862C10.7679 32.0561 10.7716 32.0263 10.776 31.9964C10.7805 31.9666 10.7856 31.9369 10.7915 31.9074C10.7974 31.8778 10.804 31.8483 10.8113 31.8191C10.8186 31.7899 10.8266 31.7609 10.8354 31.732C10.8441 31.7032 10.8536 31.6746 10.8637 31.6462C10.8739 31.6178 10.8848 31.5897 10.8963 31.5618C10.9079 31.534 10.92 31.5065 10.9329 31.4792C10.9458 31.452 10.9594 31.425 10.9736 31.3985C10.9878 31.3719 11.0026 31.3457 11.0181 31.3198C11.0337 31.294 11.0498 31.2685 11.0665 31.2434C11.0832 31.2184 11.1006 31.1937 11.1185 31.1695C11.1365 31.1453 11.1551 31.1216 11.1742 31.0983C11.1933 31.0749 11.213 31.0521 11.2332 31.0298C11.2534 31.0074 11.2742 30.9857 11.2956 30.9644C11.3169 30.943 11.3387 30.9222 11.361 30.902C11.3833 30.8817 11.4062 30.8621 11.4295 30.843C11.4528 30.8238 11.4765 30.8053 11.5007 30.7873C11.5249 30.7694 11.5496 30.752 11.5747 30.7353C11.5997 30.7185 11.6252 30.7023 11.6511 30.6869C11.6769 30.6714 11.7031 30.6565 11.7297 30.6424C11.7563 30.6282 11.7832 30.6146 11.8104 30.6017C11.8377 30.5888 11.8652 30.5766 11.8931 30.5651C11.9209 30.5536 11.9491 30.5427 11.9775 30.5325C12.0058 30.5223 12.0344 30.5129 12.0632 30.5042C12.0921 30.4954 12.1211 30.4873 12.1503 30.48C12.1796 30.4728 12.209 30.4661 12.2386 30.4603C12.2682 30.4544 12.2978 30.4492 12.3276 30.4448C12.3575 30.4404 12.3874 30.4367 12.4174 30.4338C12.4474 30.4308 12.4774 30.4286 12.5075 30.4271C12.5376 30.4256 12.5677 30.4249 12.5979 30.4249L30.4041 30.4249L39.5682 21.2615C39.5895 21.2402 39.6114 21.2195 39.6337 21.1992C39.6561 21.179 39.6788 21.1593 39.7021 21.1402C39.7254 21.1212 39.7492 21.1026 39.7734 21.0846C39.7976 21.0667 39.8222 21.0494 39.8473 21.0327C39.8723 21.016 39.8978 20.9998 39.9237 20.9843C39.9495 20.9688 39.9757 20.954 40.0023 20.9399C40.0289 20.9257 40.0558 20.9121 40.083 20.8992C40.1103 20.8863 40.1378 20.8741 40.1657 20.8626C40.1935 20.8511 40.2216 20.8403 40.25 20.8302C40.2783 20.82 40.3069 20.8106 40.3358 20.8018C40.3647 20.7931 40.3937 20.785 40.4229 20.7777C40.4521 20.7704 40.4815 20.7638 40.5111 20.7579C40.5406 20.7521 40.5703 20.7469 40.6001 20.7425C40.63 20.7381 40.6598 20.7344 40.6898 20.7314C40.7198 20.7285 40.7498 20.7263 40.78 20.7249C40.8101 20.7234 40.8402 20.7226 40.8703 20.7226L70.4688 20.7226C70.4989 20.7226 70.5291 20.7234 70.5592 20.7249C70.5893 20.7263 70.6193 20.7285 70.6493 20.7315C70.6793 20.7344 70.7092 20.7381 70.739 20.7425C70.7688 20.747 70.7985 20.7521 70.8281 20.758C70.8576 20.7639 70.8871 20.7705 70.9163 20.7778C70.9455 20.7851 70.9745 20.7931 71.0034 20.8019C71.0323 20.8106 71.0609 20.8201 71.0892 20.8302C71.1176 20.8404 71.1457 20.8513 71.1736 20.8628C71.2014 20.8744 71.2289 20.8866 71.2562 20.8994C71.2835 20.9123 71.3104 20.9259 71.337 20.9401C71.3636 20.9543 71.3897 20.9691 71.4156 20.9846C71.4415 21.0001 71.4669 21.0162 71.492 21.033C71.5171 21.0498 71.5416 21.0671 71.5659 21.085C71.5901 21.103 71.6139 21.1216 71.6372 21.1407C71.6605 21.1598 71.6833 21.1795 71.7056 21.1997C71.728 21.2199 71.7498 21.2407 71.7711 21.2621C71.7924 21.2834 71.8132 21.3052 71.8335 21.3275C71.8537 21.3499 71.8733 21.3727 71.8925 21.396C71.9116 21.4193 71.9301 21.443 71.9481 21.4673C71.9661 21.4914 71.9834 21.5161 72.0002 21.5412C72.0169 21.5662 72.0331 21.5917 72.0485 21.6176C72.064 21.6434 72.0789 21.6696 72.0931 21.6962C72.1072 21.7228 72.1208 21.7497 72.1337 21.7769C72.1466 21.8042 72.1588 21.8317 72.1703 21.8596C72.1819 21.8874 72.1928 21.9156 72.2029 21.944C72.2131 21.9723 72.2225 22.0009 72.2313 22.0297C72.24 22.0586 72.2481 22.0876 72.2554 22.1168C72.2627 22.1461 72.2693 22.1755 72.2752 22.2051C72.281 22.2347 72.2862 22.2644 72.2906 22.2941C72.295 22.324 72.2987 22.3539 72.3017 22.3839C72.3046 22.4139 72.3069 22.4439 72.3083 22.474C72.3098 22.5041 72.3106 22.5342 72.3106 22.5644C72.3106 22.5946 72.3098 22.6247 72.3083 22.6548C72.3069 22.6849 72.3046 22.7149 72.3017 22.7449C72.2987 22.7749 72.295 22.8048 72.2906 22.8347C72.2862 22.8645 72.281 22.8941 72.2752 22.9237C72.2693 22.9533 72.2627 22.9827 72.2554 23.0119C72.2481 23.0411 72.24 23.0702 72.2313 23.0991C72.2225 23.1279 72.213 23.1565 72.2029 23.1849C72.1927 23.2133 72.1819 23.2414 72.1703 23.2693C72.1588 23.2971 72.1466 23.3246 72.1337 23.3519C72.1208 23.3791 72.1072 23.406 72.0931 23.4326C72.0789 23.4592 72.064 23.4854 72.0485 23.5112C72.0331 23.5371 72.0169 23.5626 72.0002 23.5876C71.9834 23.6127 71.9661 23.6374 71.9481 23.6616C71.9301 23.6858 71.9116 23.7095 71.8925 23.7328C71.8733 23.7561 71.8537 23.7789 71.8335 23.8013C71.8132 23.8236 71.7924 23.8454 71.7711 23.8667C71.7498 23.8881 71.728 23.9089 71.7056 23.9291C71.6833 23.9493 71.6605 23.969 71.6372 23.9881C71.6139 24.0072 71.5901 24.0258 71.5659 24.0438C71.5416 24.0617 71.5171 24.0791 71.492 24.0958C71.4669 24.1125 71.4415 24.1287 71.4156 24.1442C71.3897 24.1597 71.3636 24.1745 71.337 24.1887C71.3104 24.2029 71.2835 24.2165 71.2562 24.2294C71.2289 24.2423 71.2014 24.2545 71.1736 24.266C71.1457 24.2775 71.1176 24.2884 71.0892 24.2985C71.0609 24.3087 71.0323 24.3182 71.0034 24.3269C70.9745 24.3356 70.9455 24.3437 70.9163 24.351C70.8871 24.3583 70.8576 24.3649 70.8281 24.3708C70.7985 24.3767 70.7688 24.3818 70.739 24.3863C70.7092 24.3907 70.6793 24.3944 70.6493 24.3973C70.6193 24.4003 70.5893 24.4025 70.5592 24.404C70.5291 24.4055 70.4989 24.4062 70.4688 24.4062L41.6326 24.4062L32.4685 33.5695C32.4472 33.5908 32.4253 33.6116 32.403 33.6318C32.3806 33.6521 32.3579 33.6717 32.3346 33.6909C32.3113 33.71 32.2875 33.7285 32.2633 33.7464C32.2391 33.7644 32.2145 33.7817 32.1894 33.7984C32.1643 33.8151 32.1389 33.8313 32.113 33.8468C32.0872 33.8622 32.061 33.877 32.0344 33.8912C32.0078 33.9054 31.9809 33.919 31.9537 33.9319C31.9264 33.9448 31.8989 33.957 31.871 33.9685C31.8432 33.9799 31.8151 33.9908 31.7867 34.0009C31.7584 34.0111 31.7298 34.0205 31.7009 34.0293C31.672 34.038 31.643 34.0461 31.6138 34.0534C31.5846 34.0607 31.5552 34.0673 31.5256 34.0732C31.4961 34.079 31.4664 34.0842 31.4366 34.0886C31.4067 34.093 31.3769 34.0967 31.3469 34.0997C31.3169 34.1026 31.2869 34.1048 31.2567 34.1063C31.2266 34.1077 31.1965 34.1085 31.1664 34.1085Z"   fill="#27A4D6" >
</path>
<path d="M20.3911 75.8091C20.3609 75.8091 20.3308 75.8084 20.3007 75.8069C20.2706 75.8055 20.2405 75.8032 20.2106 75.8002C20.1806 75.7973 20.1507 75.7936 20.1208 75.7892C20.091 75.7848 20.0614 75.7796 20.0318 75.7737C20.0022 75.7679 19.9728 75.7612 19.9435 75.754C19.9143 75.7466 19.8853 75.7386 19.8564 75.7299C19.8276 75.7211 19.799 75.7116 19.7707 75.7014C19.7422 75.6913 19.7141 75.6805 19.6862 75.6689C19.6584 75.6574 19.6309 75.6452 19.6036 75.6323C19.5764 75.6194 19.5495 75.6058 19.5229 75.5916C19.4963 75.5775 19.4701 75.5626 19.4443 75.5471C19.4184 75.5316 19.3929 75.5155 19.3679 75.4987C19.3428 75.482 19.3181 75.4646 19.2939 75.4467C19.2697 75.4287 19.246 75.4102 19.2227 75.391C19.1993 75.3719 19.1765 75.3523 19.1542 75.332C19.1319 75.3118 19.1101 75.291 19.0888 75.2696C19.0674 75.2483 19.0466 75.2266 19.0264 75.2042C19.0062 75.1819 18.9865 75.1591 18.9674 75.1358C18.9483 75.1125 18.9297 75.0887 18.9117 75.0645C18.8938 75.0402 18.8764 75.0156 18.8597 74.9906C18.8429 74.9655 18.8268 74.94 18.8113 74.9142C18.7958 74.8883 18.781 74.8621 18.7668 74.8355C18.7526 74.809 18.739 74.7821 18.7261 74.7548C18.7132 74.7275 18.701 74.7 18.6895 74.6722C18.678 74.6443 18.6671 74.6162 18.6569 74.5878C18.6468 74.5594 18.6373 74.5308 18.6286 74.502C18.6198 74.4731 18.6118 74.4441 18.6045 74.4149C18.5972 74.3857 18.5906 74.3562 18.5847 74.3266C18.5788 74.2971 18.5737 74.2674 18.5692 74.2376C18.5648 74.2077 18.5611 74.1779 18.5582 74.1478C18.5552 74.1179 18.553 74.0879 18.5515 74.0577C18.55 74.0276 18.5493 73.9975 18.5493 73.9673L18.5493 32.2667C18.5493 32.2365 18.55 32.2064 18.5515 32.1763C18.553 32.1461 18.5552 32.1161 18.5582 32.0862C18.5611 32.0561 18.5648 32.0263 18.5692 31.9964C18.5737 31.9666 18.5788 31.9369 18.5847 31.9074C18.5906 31.8778 18.5972 31.8483 18.6045 31.8191C18.6118 31.7899 18.6198 31.7609 18.6286 31.732C18.6373 31.7032 18.6468 31.6746 18.6569 31.6462C18.6671 31.6178 18.678 31.5897 18.6895 31.5618C18.701 31.534 18.7132 31.5065 18.7261 31.4792C18.739 31.452 18.7526 31.425 18.7668 31.3985C18.781 31.3719 18.7958 31.3457 18.8113 31.3198C18.8269 31.294 18.843 31.2685 18.8597 31.2434C18.8764 31.2184 18.8938 31.1937 18.9117 31.1695C18.9297 31.1453 18.9483 31.1215 18.9674 31.0982C18.9865 31.0749 19.0062 31.0521 19.0264 31.0298C19.0466 31.0074 19.0674 30.9857 19.0888 30.9644C19.1101 30.943 19.1319 30.9222 19.1542 30.902C19.1766 30.8817 19.1994 30.8621 19.2227 30.843C19.246 30.8238 19.2697 30.8053 19.2939 30.7873C19.3181 30.7694 19.3428 30.752 19.3679 30.7353C19.3929 30.7185 19.4184 30.7023 19.4443 30.6869C19.4701 30.6714 19.4963 30.6565 19.5229 30.6424C19.5495 30.6282 19.5764 30.6146 19.6036 30.6017C19.6309 30.5888 19.6584 30.5766 19.6862 30.5651C19.7141 30.5536 19.7422 30.5427 19.7707 30.5325C19.799 30.5223 19.8276 30.5129 19.8564 30.5041C19.8853 30.4954 19.9143 30.4873 19.9435 30.48C19.9728 30.4728 20.0022 30.4661 20.0318 30.4603C20.0614 30.4544 20.091 30.4492 20.1208 30.4448C20.1507 30.4404 20.1806 30.4367 20.2106 30.4338C20.2406 30.4308 20.2706 30.4286 20.3007 30.4271C20.3308 30.4256 20.3609 30.4249 20.3911 30.4249C20.4213 30.4249 20.4514 30.4256 20.4815 30.4271C20.5116 30.4286 20.5416 30.4308 20.5716 30.4338C20.6016 30.4367 20.6315 30.4404 20.6614 30.4448C20.6911 30.4492 20.7208 30.4544 20.7504 30.4603C20.78 30.4661 20.8094 30.4728 20.8387 30.48C20.8679 30.4873 20.8969 30.4954 20.9258 30.5041C20.9546 30.5129 20.9832 30.5223 21.0115 30.5325C21.0399 30.5427 21.0681 30.5536 21.0959 30.5651C21.1238 30.5766 21.1513 30.5888 21.1786 30.6017C21.2058 30.6146 21.2327 30.6282 21.2593 30.6424C21.2859 30.6565 21.3121 30.6714 21.3379 30.6869C21.3638 30.7023 21.3893 30.7185 21.4143 30.7353C21.4394 30.752 21.4641 30.7694 21.4882 30.7873C21.5125 30.8053 21.5362 30.8238 21.5595 30.843C21.5828 30.8621 21.6056 30.8817 21.628 30.902C21.6503 30.9222 21.6721 30.943 21.6934 30.9644C21.7148 30.9857 21.7356 31.0074 21.7558 31.0298C21.776 31.0521 21.7957 31.0749 21.8148 31.0982C21.8339 31.1215 21.8525 31.1453 21.8705 31.1695C21.8884 31.1937 21.9058 31.2184 21.9225 31.2434C21.9392 31.2685 21.9553 31.294 21.9709 31.3198C21.9864 31.3457 22.0012 31.3719 22.0154 31.3985C22.0296 31.425 22.0432 31.452 22.0561 31.4792C22.0689 31.5065 22.0811 31.534 22.0927 31.5618C22.1042 31.5897 22.1151 31.6178 22.1253 31.6462C22.1354 31.6746 22.1449 31.7032 22.1536 31.732C22.1624 31.7609 22.1704 31.7899 22.1777 31.8191C22.185 31.8483 22.1916 31.8778 22.1975 31.9074C22.2034 31.9369 22.2085 31.9666 22.213 31.9964C22.2174 32.0263 22.2211 32.0561 22.224 32.0862C22.227 32.1161 22.2292 32.1461 22.2306 32.1763C22.2321 32.2064 22.2329 32.2365 22.2329 32.2667L22.2329 73.9673C22.2329 73.9975 22.2321 74.0276 22.2306 74.0577C22.2292 74.0878 22.227 74.1178 22.224 74.1478C22.2211 74.1779 22.2174 74.2077 22.213 74.2376C22.2085 74.2674 22.2034 74.2971 22.1975 74.3266C22.1916 74.3562 22.185 74.3857 22.1777 74.4149C22.1704 74.4441 22.1624 74.4731 22.1536 74.502C22.1449 74.5308 22.1354 74.5594 22.1253 74.5878C22.1151 74.6162 22.1042 74.6443 22.0927 74.6722C22.0811 74.7 22.0689 74.7275 22.0561 74.7548C22.0432 74.7821 22.0296 74.809 22.0154 74.8355C22.0012 74.8621 21.9864 74.8883 21.9709 74.9142C21.9553 74.94 21.9392 74.9655 21.9225 74.9906C21.9058 75.0156 21.8884 75.0402 21.8705 75.0645C21.8525 75.0887 21.8339 75.1125 21.8148 75.1358C21.7957 75.1591 21.776 75.1819 21.7558 75.2042C21.7356 75.2266 21.7148 75.2483 21.6934 75.2696C21.6721 75.291 21.6503 75.3118 21.628 75.332C21.6056 75.3523 21.5828 75.3719 21.5595 75.391C21.5362 75.4102 21.5125 75.4287 21.4882 75.4467C21.4641 75.4646 21.4394 75.482 21.4143 75.4987C21.3893 75.5155 21.3638 75.5316 21.3379 75.5471C21.3121 75.5626 21.2859 75.5775 21.2593 75.5916C21.2327 75.6058 21.2058 75.6194 21.1786 75.6323C21.1513 75.6452 21.1238 75.6574 21.0959 75.6689C21.0681 75.6805 21.0399 75.6913 21.0115 75.7014C20.9832 75.7116 20.9546 75.7211 20.9258 75.7299C20.8969 75.7386 20.8679 75.7466 20.8387 75.754C20.8094 75.7612 20.78 75.7679 20.7504 75.7737C20.7208 75.7796 20.6911 75.7848 20.6614 75.7892C20.6315 75.7936 20.6016 75.7973 20.5716 75.8002C20.5416 75.8032 20.5116 75.8055 20.4815 75.8069C20.4514 75.8084 20.4213 75.8091 20.3911 75.8091ZM58.465 53.77C58.4348 53.77 58.4047 53.7693 58.3746 53.7678C58.3445 53.7664 58.3145 53.7641 58.2845 53.7612C58.2545 53.7582 58.2246 53.7545 58.1947 53.7501C58.165 53.7457 58.1353 53.7405 58.1057 53.7346C58.0762 53.7288 58.0467 53.7222 58.0175 53.7149C57.9882 53.7075 57.9592 53.6995 57.9303 53.6908C57.9015 53.682 57.8729 53.6725 57.8446 53.6623C57.8161 53.6522 57.788 53.6414 57.7602 53.6298C57.7324 53.6183 57.7048 53.6061 57.6775 53.5932C57.6503 53.5803 57.6234 53.5667 57.5968 53.5525C57.5702 53.5384 57.544 53.5235 57.5182 53.508C57.4923 53.4925 57.4668 53.4764 57.4418 53.4597C57.4167 53.4429 57.392 53.4255 57.3679 53.4076C57.3436 53.3896 57.3199 53.3711 57.2966 53.352C57.2733 53.3328 57.2505 53.3132 57.2281 53.2929C57.2058 53.2727 57.184 53.2519 57.1626 53.2306C57.1413 53.2093 57.1206 53.1875 57.1003 53.1651C57.0801 53.1428 57.0604 53.12 57.0413 53.0967C57.0222 53.0734 57.0037 53.0497 56.9856 53.0254C56.9677 53.0011 56.9503 52.9765 56.9336 52.9515C56.9169 52.9264 56.9007 52.901 56.8852 52.8751C56.8698 52.8492 56.8549 52.823 56.8407 52.7964C56.8265 52.7699 56.8129 52.743 56.8 52.7157C56.7871 52.6884 56.775 52.6609 56.7634 52.6331C56.7519 52.6052 56.741 52.5771 56.7308 52.5487C56.7207 52.5203 56.7112 52.4918 56.7025 52.4628C56.6938 52.434 56.6857 52.405 56.6784 52.3758C56.6711 52.3466 56.6645 52.3171 56.6586 52.2876C56.6528 52.258 56.6476 52.2283 56.6432 52.1985C56.6388 52.1686 56.6351 52.1388 56.6321 52.1087C56.6291 52.0787 56.6269 52.0487 56.6255 52.0187C56.6239 51.9885 56.6232 51.9584 56.6232 51.9282L56.6232 10.077C56.6232 10.0469 56.6239 10.0167 56.6255 9.98662C56.6269 9.95651 56.6291 9.92648 56.6321 9.89653C56.6351 9.86652 56.6388 9.83661 56.6432 9.80676C56.6476 9.77697 56.6528 9.74729 56.6586 9.71772C56.6645 9.68814 56.6711 9.65872 56.6784 9.62947C56.6857 9.60026 56.6938 9.57123 56.7025 9.54234C56.7112 9.51352 56.7207 9.48493 56.7308 9.45658C56.741 9.42818 56.7519 9.40005 56.7634 9.37218C56.775 9.34437 56.7871 9.31682 56.8 9.28954C56.8129 9.26231 56.8265 9.2354 56.8407 9.20882C56.8549 9.18223 56.8698 9.15602 56.8852 9.13018C56.9007 9.10429 56.9169 9.07883 56.9336 9.05379C56.9503 9.0287 56.9677 9.00406 56.9856 8.97988C57.0037 8.95564 57.0222 8.93188 57.0413 8.90861C57.0604 8.88528 57.0801 8.86245 57.1003 8.84014C57.1206 8.81783 57.1413 8.79602 57.1626 8.77472C57.184 8.75336 57.2058 8.73257 57.2281 8.71233C57.2505 8.6921 57.2733 8.67243 57.2966 8.65332C57.3199 8.63421 57.3436 8.61565 57.3679 8.59766C57.392 8.57973 57.4167 8.56238 57.4418 8.54561C57.4668 8.5289 57.4923 8.51278 57.5182 8.49724C57.544 8.48176 57.5702 8.46692 57.5968 8.45272C57.6234 8.43852 57.6503 8.42496 57.6775 8.41204C57.7048 8.39918 57.7323 8.38698 57.7602 8.37545C57.788 8.36392 57.8161 8.35305 57.8445 8.34285C57.8729 8.33271 57.9015 8.32326 57.9303 8.31451C57.9592 8.30575 57.9882 8.29772 58.0175 8.2904C58.0467 8.28309 58.0762 8.2765 58.1057 8.27062C58.1353 8.26475 58.165 8.2596 58.1947 8.25517C58.2246 8.25074 58.2545 8.24705 58.2845 8.24412C58.3145 8.24113 58.3445 8.23891 58.3746 8.23747C58.4047 8.23598 58.4348 8.23523 58.465 8.23523C58.4952 8.23523 58.5253 8.23598 58.5554 8.23747C58.5854 8.23891 58.6155 8.24113 58.6455 8.24412C58.6755 8.24705 58.7054 8.25074 58.7353 8.25517C58.7651 8.2596 58.7948 8.26475 58.8243 8.27062C58.8539 8.2765 58.8833 8.28309 58.9125 8.2904C58.9417 8.29772 58.9708 8.30575 58.9996 8.31451C59.0285 8.32326 59.0571 8.33271 59.0855 8.34285C59.1139 8.35305 59.142 8.36392 59.1699 8.37545C59.1976 8.38698 59.2252 8.39918 59.2525 8.41204C59.2797 8.42496 59.3066 8.43852 59.3332 8.45272C59.3598 8.46692 59.386 8.48176 59.4119 8.49724C59.4377 8.51278 59.4632 8.5289 59.4883 8.54561C59.5133 8.56238 59.5379 8.57973 59.5622 8.59766C59.5864 8.61565 59.6101 8.63421 59.6334 8.65332C59.6567 8.67243 59.6796 8.6921 59.7019 8.71233C59.7242 8.73257 59.746 8.75336 59.7673 8.77472C59.7887 8.79602 59.8094 8.81783 59.8297 8.84014C59.85 8.86245 59.8696 8.88528 59.8887 8.90861C59.9079 8.93188 59.9264 8.95564 59.9444 8.97988C59.9623 9.00406 59.9797 9.0287 59.9964 9.05379C60.0132 9.07883 60.0293 9.10429 60.0448 9.13018C60.0602 9.15602 60.0751 9.18223 60.0893 9.20882C60.1035 9.2354 60.1171 9.26231 60.13 9.28954C60.1429 9.31682 60.1551 9.34437 60.1666 9.37218C60.1781 9.40005 60.1889 9.42818 60.1991 9.45658C60.2093 9.48493 60.2188 9.51352 60.2275 9.54234C60.2363 9.57123 60.2443 9.60026 60.2516 9.62947C60.2589 9.65872 60.2656 9.68814 60.2714 9.71772C60.2773 9.74729 60.2825 9.77697 60.2869 9.80676C60.2913 9.83661 60.295 9.86652 60.2979 9.89653C60.3009 9.92648 60.3031 9.95651 60.3046 9.98662C60.3061 10.0167 60.3068 10.0469 60.3068 10.077L60.3068 51.929C60.3068 51.9592 60.3061 51.9893 60.3046 52.0194C60.303 52.0495 60.3008 52.0795 60.2978 52.1095C60.2949 52.1395 60.2912 52.1694 60.2868 52.1992C60.2824 52.229 60.2772 52.2587 60.2713 52.2883C60.2654 52.3178 60.2588 52.3472 60.2515 52.3764C60.2441 52.4057 60.236 52.4347 60.2273 52.4635C60.2186 52.4923 60.2091 52.5209 60.1989 52.5493C60.1888 52.5777 60.1779 52.6058 60.1664 52.6337C60.1548 52.6614 60.1426 52.689 60.1298 52.7162C60.1169 52.7434 60.1032 52.7703 60.0891 52.7969C60.0749 52.8235 60.06 52.8497 60.0445 52.8756C60.029 52.9014 60.0128 52.9268 59.9961 52.9519C59.9794 52.9769 59.9621 53.0016 59.9441 53.0258C59.9261 53.05 59.9076 53.0737 59.8885 53.097C59.8693 53.1203 59.8496 53.1431 59.8294 53.1655C59.8091 53.1878 59.7884 53.2096 59.7671 53.2309C59.7458 53.2522 59.7239 53.2729 59.7016 53.2932C59.6792 53.3134 59.6565 53.3331 59.6332 53.3522C59.6099 53.3713 59.5861 53.3898 59.5619 53.4078C59.5377 53.4257 59.5131 53.4431 59.488 53.4598C59.4629 53.4766 59.4376 53.4926 59.4117 53.5082C59.3858 53.5236 59.3596 53.5385 59.333 53.5527C59.3065 53.5669 59.2796 53.5804 59.2523 53.5933C59.225 53.6062 59.1975 53.6184 59.1696 53.6299C59.1418 53.6414 59.1137 53.6522 59.0853 53.6624C59.0569 53.6726 59.0284 53.682 58.9995 53.6908C58.9707 53.6995 58.9416 53.7076 58.9124 53.7149C58.8832 53.7222 58.8538 53.7288 58.8242 53.7346C58.7947 53.7405 58.765 53.7457 58.7352 53.7501C58.7054 53.7545 58.6755 53.7582 58.6455 53.7612C58.6155 53.7641 58.5854 53.7664 58.5553 53.7678C58.5252 53.7693 58.4951 53.77 58.465 53.77Z"   fill="#27A4D6" >
</path>
<path d="M49.2288 62.7012L7.51213 62.7012C7.48199 62.7012 7.45186 62.7004 7.42175 62.6989C7.39165 62.6975 7.3616 62.6953 7.3316 62.6923C7.3016 62.6894 7.2717 62.6857 7.24188 62.6812C7.21207 62.6768 7.18238 62.6717 7.15281 62.6658C7.12325 62.6599 7.09384 62.6533 7.06461 62.646C7.03537 62.6387 7.00633 62.6307 6.97748 62.6219C6.94864 62.6132 6.92002 62.6037 6.89164 62.5936C6.86327 62.5834 6.83515 62.5725 6.80731 62.561C6.77946 62.5494 6.75191 62.5372 6.72466 62.5244C6.69741 62.5115 6.67049 62.4979 6.64392 62.4837C6.61733 62.4695 6.59111 62.4546 6.56525 62.4392C6.5394 62.4237 6.51394 62.4076 6.48888 62.3908C6.46382 62.374 6.43918 62.3567 6.41497 62.3388C6.39076 62.3208 6.36701 62.3022 6.3437 62.2831C6.32041 62.264 6.29759 62.2443 6.27525 62.2241C6.25292 62.2038 6.2311 62.1831 6.20978 62.1617C6.18847 62.1404 6.16769 62.1186 6.14745 62.0963C6.1272 62.074 6.10752 62.0511 6.08841 62.0278C6.06928 62.0045 6.05074 61.9808 6.03278 61.9565C6.01483 61.9324 5.99748 61.9077 5.98073 61.8826C5.96399 61.8576 5.94786 61.8321 5.93237 61.8062C5.91687 61.7804 5.90202 61.7542 5.88781 61.7276C5.8736 61.701 5.86005 61.6741 5.84716 61.6469C5.83428 61.6196 5.82207 61.5921 5.81053 61.5642C5.799 61.5364 5.78815 61.5082 5.778 61.4798C5.76785 61.4515 5.75839 61.4229 5.74964 61.3941C5.74089 61.3652 5.73286 61.3362 5.72553 61.3069C5.71821 61.2777 5.7116 61.2483 5.70572 61.2187C5.69984 61.1891 5.69469 61.1594 5.69027 61.1297C5.68585 61.0998 5.68216 61.0699 5.67921 61.04C5.67625 61.01 5.67403 60.9799 5.67255 60.9498C5.67107 60.9197 5.67033 60.8895 5.67033 60.8594C5.67033 60.8292 5.67107 60.7991 5.67255 60.7691C5.67403 60.739 5.67625 60.7089 5.67921 60.6789C5.68216 60.6489 5.68585 60.619 5.69027 60.5891C5.69469 60.5593 5.69984 60.5297 5.70572 60.5001C5.7116 60.4705 5.71821 60.4411 5.72553 60.4118C5.73286 60.3826 5.74089 60.3536 5.74964 60.3247C5.75839 60.2959 5.76785 60.2673 5.778 60.2389C5.78815 60.2105 5.799 60.1824 5.81053 60.1545C5.82207 60.1267 5.83428 60.0992 5.84716 60.0719C5.86005 60.0447 5.8736 60.0178 5.88781 59.9912C5.90202 59.9646 5.91687 59.9384 5.93237 59.9125C5.94786 59.8867 5.96399 59.8612 5.98073 59.8362C5.99748 59.8111 6.01483 59.7864 6.03278 59.7622C6.05074 59.738 6.06928 59.7142 6.08841 59.691C6.10752 59.6677 6.1272 59.6449 6.14745 59.6225C6.16769 59.6002 6.18847 59.5784 6.20978 59.5571C6.2311 59.5357 6.25292 59.5149 6.27525 59.4947C6.29759 59.4745 6.32041 59.4548 6.3437 59.4357C6.36701 59.4166 6.39076 59.398 6.41497 59.38C6.43918 59.3621 6.46382 59.3447 6.48888 59.328C6.51394 59.3112 6.5394 59.2951 6.56525 59.2796C6.59111 59.2641 6.61733 59.2493 6.64392 59.2351C6.67049 59.2209 6.69741 59.2073 6.72466 59.1944C6.75191 59.1815 6.77946 59.1693 6.80731 59.1578C6.83515 59.1463 6.86327 59.1354 6.89164 59.1252C6.92002 59.1151 6.94864 59.1056 6.97749 59.0969C7.00633 59.0881 7.03537 59.0801 7.06461 59.0728C7.09384 59.0655 7.12325 59.0589 7.15281 59.053C7.18238 59.0471 7.21207 59.042 7.24188 59.0375C7.2717 59.0331 7.3016 59.0294 7.3316 59.0265C7.3616 59.0235 7.39165 59.0213 7.42175 59.0198C7.45186 59.0183 7.48199 59.0176 7.51213 59.0176L49.2328 59.0176C49.263 59.0176 49.2931 59.0183 49.3232 59.0198C49.3533 59.0213 49.3834 59.0235 49.4133 59.0265C49.4433 59.0294 49.4732 59.0331 49.5031 59.0375C49.5329 59.042 49.5626 59.0471 49.5921 59.053C49.6217 59.0589 49.6511 59.0655 49.6803 59.0728C49.7095 59.0801 49.7386 59.0881 49.7675 59.0969C49.7963 59.1056 49.8249 59.1151 49.8533 59.1252C49.8817 59.1354 49.9098 59.1463 49.9377 59.1578C49.9655 59.1693 49.993 59.1815 50.0203 59.1944C50.0475 59.2073 50.0744 59.2209 50.101 59.2351C50.1276 59.2493 50.1538 59.2641 50.1797 59.2796C50.2055 59.2951 50.231 59.3112 50.2561 59.328C50.2811 59.3447 50.3057 59.3621 50.33 59.38C50.3542 59.398 50.3779 59.4166 50.4012 59.4357C50.4245 59.4548 50.4474 59.4745 50.4697 59.4947C50.492 59.5149 50.5138 59.5357 50.5351 59.5571C50.5565 59.5784 50.5772 59.6002 50.5975 59.6225C50.6178 59.6449 50.6374 59.6677 50.6565 59.691C50.6757 59.7142 50.6942 59.738 50.7122 59.7622C50.7301 59.7864 50.7475 59.8111 50.7642 59.8362C50.781 59.8612 50.7971 59.8867 50.8126 59.9125C50.8281 59.9384 50.8429 59.9646 50.8571 59.9912C50.8713 60.0178 50.8849 60.0447 50.8978 60.0719C50.9107 60.0992 50.9229 60.1267 50.9344 60.1545C50.9459 60.1824 50.9567 60.2105 50.9669 60.2389C50.9771 60.2673 50.9866 60.2959 50.9953 60.3247C51.0041 60.3536 51.0121 60.3826 51.0194 60.4118C51.0267 60.4411 51.0334 60.4705 51.0392 60.5001C51.0451 60.5297 51.0503 60.5593 51.0547 60.5891C51.0591 60.619 51.0628 60.6489 51.0657 60.6789C51.0687 60.7089 51.0709 60.739 51.0724 60.7691C51.0739 60.7991 51.0746 60.8292 51.0746 60.8594C51.0746 60.8895 51.0739 60.9197 51.0724 60.9498C51.0709 60.9799 51.0687 61.0099 51.0657 61.0399C51.0628 61.0699 51.0591 61.0998 51.0547 61.1297C51.0503 61.1594 51.0451 61.1891 51.0392 61.2187C51.0334 61.2483 51.0267 61.2777 51.0194 61.3069C51.0121 61.3362 51.0041 61.3652 50.9953 61.3941C50.9866 61.4229 50.9771 61.4515 50.9669 61.4799C50.9567 61.5083 50.9459 61.5364 50.9344 61.5642C50.9229 61.5921 50.9107 61.6196 50.8978 61.6469C50.8849 61.6741 50.8713 61.701 50.8571 61.7276C50.8429 61.7542 50.8281 61.7804 50.8126 61.8062C50.7971 61.8321 50.781 61.8576 50.7642 61.8826C50.7475 61.9077 50.7301 61.9324 50.7122 61.9565C50.6942 61.9808 50.6757 62.0045 50.6565 62.0278C50.6374 62.0511 50.6178 62.074 50.5975 62.0963C50.5772 62.1186 50.5565 62.1404 50.5351 62.1617C50.5138 62.1831 50.492 62.2038 50.4697 62.2241C50.4474 62.2443 50.4245 62.264 50.4012 62.2831C50.3779 62.3022 50.3542 62.3208 50.33 62.3388C50.3057 62.3567 50.2811 62.374 50.2561 62.3908C50.231 62.4076 50.2055 62.4237 50.1797 62.4392C50.1538 62.4546 50.1276 62.4695 50.101 62.4837C50.0744 62.4979 50.0475 62.5115 50.0203 62.5244C49.993 62.5372 49.9655 62.5494 49.9377 62.561C49.9098 62.5725 49.8817 62.5834 49.8533 62.5936C49.8249 62.6037 49.7963 62.6132 49.7675 62.6219C49.7386 62.6307 49.7095 62.6387 49.6803 62.646C49.6511 62.6533 49.6217 62.6599 49.5921 62.6658C49.5626 62.6717 49.5329 62.6768 49.5031 62.6812C49.4732 62.6857 49.4433 62.6894 49.4133 62.6923C49.3834 62.6953 49.3533 62.6975 49.3232 62.6989C49.2931 62.7004 49.263 62.7012 49.2328 62.7012L49.2288 62.7012Z"   fill="#27A4D6" >
</path>
<path d="M58.465 70.3326C58.3101 70.3326 58.1551 70.3289 58.0003 70.3213C57.8456 70.3136 57.691 70.3023 57.5368 70.2871C57.3825 70.2719 57.2288 70.2529 57.0754 70.2302C56.9221 70.2075 56.7695 70.181 56.6175 70.1508C56.4654 70.1206 56.3142 70.0866 56.1639 70.049C56.0136 70.0114 55.8642 69.97 55.7159 69.925C55.5676 69.8801 55.4204 69.8315 55.2745 69.7793C55.1286 69.7271 54.984 69.6713 54.8408 69.612C54.6976 69.5527 54.556 69.4899 54.4159 69.4237C54.2758 69.3574 54.1373 69.2878 54.0007 69.2147C53.864 69.1416 53.7291 69.0653 53.5962 68.9856C53.4633 68.906 53.3324 68.8231 53.2034 68.737C53.0746 68.6509 52.9479 68.5617 52.8234 68.4694C52.6989 68.377 52.5768 68.2817 52.4569 68.1834C52.3371 68.0851 52.2198 67.9839 52.105 67.8798C51.9901 67.7757 51.8779 67.6689 51.7683 67.5593C51.6587 67.4497 51.5518 67.3375 51.4477 67.2226C51.3437 67.1078 51.2425 66.9905 51.1441 66.8707C51.0458 66.7509 50.9505 66.6288 50.8581 66.5042C50.7658 66.3797 50.6766 66.253 50.5905 66.1242C50.5044 65.9954 50.4215 65.8645 50.3418 65.7316C50.262 65.5986 50.1857 65.4638 50.1126 65.3271C50.0395 65.1904 49.9699 65.052 49.9036 64.9119C49.8373 64.7718 49.7745 64.6302 49.7152 64.487C49.6559 64.3438 49.6002 64.1993 49.5479 64.0533C49.4957 63.9074 49.447 63.7603 49.402 63.6119C49.3571 63.4636 49.3158 63.3143 49.2781 63.164C49.2404 63.0136 49.2065 62.8625 49.1762 62.7104C49.146 62.5584 49.1195 62.4058 49.0967 62.2524C49.074 62.0991 49.055 61.9453 49.0398 61.7911C49.0246 61.6369 49.0132 61.4823 49.0057 61.3275C48.998 61.1727 48.9942 61.0178 48.9942 60.8628C48.9942 60.7079 48.998 60.5529 49.0056 60.3981C49.0132 60.2433 49.0246 60.0889 49.0398 59.9346C49.055 59.7803 49.074 59.6266 49.0967 59.4732C49.1194 59.3199 49.1459 59.1673 49.1761 59.0153C49.2064 58.8633 49.2403 58.7121 49.278 58.5617C49.3156 58.4114 49.357 58.2621 49.402 58.1137C49.4469 57.9654 49.4955 57.8183 49.5477 57.6724C49.5999 57.5265 49.6557 57.3819 49.715 57.2386C49.7743 57.0955 49.8371 56.9538 49.9034 56.8138C49.9697 56.6736 50.0393 56.5352 50.1123 56.3986C50.1854 56.2618 50.2618 56.127 50.3414 55.9941C50.4211 55.8611 50.5041 55.7302 50.5902 55.6014C50.6763 55.4725 50.7655 55.3458 50.8578 55.2213C50.9501 55.0968 51.0455 54.9747 51.1437 54.8549C51.2421 54.7351 51.3433 54.6178 51.4474 54.5029C51.5515 54.3881 51.6583 54.2758 51.7679 54.1662C51.8775 54.0567 51.9898 53.9498 52.1046 53.8457C52.2194 53.7416 52.3367 53.6404 52.4565 53.5421C52.5763 53.4438 52.6985 53.3485 52.823 53.2561C52.9475 53.1638 53.0742 53.0746 53.203 52.9885C53.3319 52.9024 53.4628 52.8195 53.5957 52.7398C53.7287 52.6601 53.8635 52.5838 54.0002 52.5107C54.1369 52.4376 54.2753 52.368 54.4154 52.3017C54.5555 52.2355 54.6971 52.1726 54.8403 52.1133C54.9835 52.054 55.1281 51.9983 55.274 51.946C55.42 51.8938 55.5671 51.8453 55.7154 51.8003C55.8637 51.7553 56.013 51.714 56.1634 51.6763C56.3137 51.6387 56.4649 51.6047 56.6169 51.5745C56.769 51.5442 56.9216 51.5177 57.0749 51.495C57.2282 51.4723 57.382 51.4533 57.5362 51.4381C57.6905 51.4229 57.845 51.4116 57.9998 51.4039C58.1546 51.3963 58.3095 51.3925 58.4645 51.3925C58.6195 51.3925 58.7744 51.3964 58.9292 51.404C59.084 51.4116 59.2385 51.423 59.3927 51.4382C59.547 51.4534 59.7007 51.4723 59.8541 51.4951C60.0074 51.5179 60.16 51.5443 60.312 51.5746C60.4641 51.6048 60.6153 51.6388 60.7656 51.6764C60.9159 51.7141 61.0653 51.7555 61.2136 51.8005C61.3619 51.8454 61.509 51.894 61.6549 51.9463C61.8009 51.9985 61.9455 52.0543 62.0887 52.1136C62.2318 52.1729 62.3735 52.2357 62.5135 52.3019C62.6537 52.3682 62.7921 52.4379 62.9287 52.5109C63.0654 52.584 63.2002 52.6604 63.3332 52.7401C63.4662 52.8198 63.5971 52.9027 63.7259 52.9888C63.8548 53.0749 63.9814 53.1641 64.1059 53.2564C64.2304 53.3488 64.3525 53.4441 64.4723 53.5425C64.5921 53.6408 64.7094 53.742 64.8243 53.8461C64.9391 53.9502 65.0513 54.057 65.1609 54.1666C65.2706 54.2762 65.3774 54.3885 65.4815 54.5033C65.5855 54.6182 65.6867 54.7355 65.7851 54.8553C65.8833 54.9751 65.9787 55.0972 66.071 55.2217C66.1633 55.3462 66.2525 55.4729 66.3386 55.6018C66.4247 55.7307 66.5076 55.8616 66.5873 55.9946C66.667 56.1275 66.7433 56.2623 66.8164 56.399C66.8894 56.5357 66.9591 56.6741 67.0253 56.8142C67.0915 56.9543 67.1543 57.096 67.2137 57.2392C67.273 57.3824 67.3287 57.5269 67.3809 57.6728C67.4331 57.8188 67.4818 57.9659 67.5267 58.1142C67.5717 58.2626 67.613 58.4119 67.6506 58.5623C67.6883 58.7126 67.7222 58.8638 67.7524 59.0158C67.7827 59.1678 67.8092 59.3205 67.8318 59.4738C67.8546 59.6271 67.8736 59.7809 67.8887 59.9351C67.9039 60.0894 67.9153 60.2439 67.9229 60.3987C67.9305 60.5535 67.9343 60.7084 67.9343 60.8634C67.9341 61.0183 67.9301 61.1731 67.9223 61.3278C67.9146 61.4826 67.903 61.637 67.8877 61.7912C67.8724 61.9453 67.8532 62.0991 67.8304 62.2523C67.8076 62.4055 67.7809 62.5581 67.7506 62.71C67.7202 62.8619 67.6862 63.013 67.6484 63.1633C67.6107 63.3135 67.5693 63.4627 67.5242 63.6109C67.4791 63.7592 67.4304 63.9063 67.3781 64.0521C67.3258 64.1979 67.27 64.3424 67.2107 64.4855C67.1514 64.6286 67.0885 64.7702 67.0222 64.9101C66.9559 65.0502 66.8862 65.1885 66.8131 65.3251C66.74 65.4617 66.6636 65.5964 66.5839 65.7293C66.5042 65.8621 66.4213 65.993 66.3352 66.1217C66.2491 66.2506 66.1599 66.3772 66.0676 66.5015C65.9752 66.626 65.88 66.7481 65.7817 66.8678C65.6834 66.9875 65.5821 67.1048 65.4781 67.2196C65.3741 67.3343 65.2673 67.4465 65.1577 67.5561C65.0482 67.6656 64.936 67.7724 64.8212 67.8765C64.7065 67.9805 64.5892 68.0817 64.4695 68.18C64.3497 68.2783 64.2276 68.3736 64.1032 68.4659C63.9788 68.5583 63.8522 68.6475 63.7234 68.7335C63.5946 68.8196 63.4638 68.9026 63.3309 68.9823C63.1981 69.062 63.0634 69.1383 62.9268 69.2115C62.7901 69.2846 62.6518 69.3542 62.5118 69.4205C62.3717 69.4868 62.2302 69.5497 62.0871 69.609C61.944 69.6684 61.7996 69.7242 61.6537 69.7765C61.5079 69.8288 61.3608 69.8775 61.2126 69.9225C61.0644 69.9676 60.9152 70.009 60.765 70.0467C60.6147 70.0845 60.4635 70.1186 60.3116 70.1489C60.1597 70.1793 60.0072 70.2059 59.8539 70.2288C59.7007 70.2516 59.547 70.2707 59.3928 70.2861C59.2387 70.3014 59.0843 70.3129 58.9295 70.3207C58.7748 70.3285 58.62 70.3325 58.465 70.3326ZM58.465 55.0761C58.3703 55.0761 58.2757 55.0785 58.1811 55.0831C58.0865 55.0877 57.992 55.0946 57.8978 55.1039C57.8035 55.1132 57.7095 55.1248 57.6158 55.1387C57.5221 55.1526 57.4288 55.1687 57.3359 55.1872C57.243 55.2057 57.1506 55.2264 57.0588 55.2494C56.9669 55.2724 56.8756 55.2977 56.785 55.3251C56.6944 55.3526 56.6044 55.3823 56.5153 55.4142C56.4261 55.4461 56.3377 55.4802 56.2502 55.5164C56.1627 55.5527 56.0762 55.591 55.9905 55.6315C55.9049 55.6719 55.8203 55.7145 55.7368 55.7591C55.6532 55.8038 55.5708 55.8505 55.4896 55.8991C55.4084 55.9478 55.3284 55.9985 55.2496 56.0511C55.1708 56.1037 55.0934 56.1582 55.0174 56.2146C54.9413 56.271 54.8666 56.3293 54.7934 56.3893C54.7201 56.4495 54.6484 56.5113 54.5783 56.5749C54.5081 56.6385 54.4395 56.7038 54.3725 56.7708C54.3055 56.8377 54.2403 56.9062 54.1766 56.9764C54.113 57.0466 54.0511 57.1183 53.9911 57.1915C53.931 57.2647 53.8727 57.3394 53.8163 57.4155C53.7598 57.4915 53.7053 57.5689 53.6527 57.6476C53.6 57.7264 53.5494 57.8064 53.5007 57.8876C53.452 57.9689 53.4053 58.0512 53.3606 58.1347C53.316 58.2183 53.2734 58.3029 53.2329 58.3885C53.1924 58.4741 53.154 58.5607 53.1177 58.6482C53.0815 58.7357 53.0474 58.824 53.0155 58.9132C52.9836 59.0024 52.9538 59.0923 52.9264 59.1829C52.8989 59.2735 52.8736 59.3648 52.8506 59.4567C52.8275 59.5485 52.8068 59.6409 52.7883 59.7338C52.7698 59.8267 52.7536 59.92 52.7397 60.0137C52.7258 60.1074 52.7142 60.2013 52.7049 60.2956C52.6957 60.3898 52.6887 60.4843 52.684 60.5789C52.6793 60.6734 52.677 60.7681 52.677 60.8628C52.677 60.9576 52.6793 61.0523 52.684 61.1469C52.6886 61.2414 52.6955 61.3358 52.7048 61.4301C52.7141 61.5244 52.7257 61.6184 52.7395 61.7121C52.7535 61.8057 52.7696 61.899 52.7881 61.9919C52.8065 62.0848 52.8273 62.1772 52.8503 62.2691C52.8733 62.3609 52.8985 62.4522 52.926 62.5429C52.9535 62.6335 52.9832 62.7234 53.0152 62.8126C53.047 62.9018 53.0811 62.9901 53.1173 63.0776C53.1536 63.1652 53.192 63.2517 53.2324 63.3373C53.2729 63.4229 53.3155 63.5076 53.3601 63.5911C53.4048 63.6746 53.4514 63.757 53.5001 63.8382C53.5488 63.9195 53.5995 63.9995 53.6521 64.0783C53.7047 64.157 53.7592 64.2344 53.8156 64.3105C53.872 64.3866 53.9303 64.4612 53.9904 64.5345C54.0505 64.6077 54.1123 64.6794 54.1759 64.7496C54.2395 64.8197 54.3048 64.8883 54.3718 64.9553C54.4387 65.0223 54.5073 65.0876 54.5775 65.1512C54.6476 65.2148 54.7193 65.2767 54.7926 65.3367C54.8658 65.3969 54.9404 65.4551 55.0165 65.5115C55.0925 65.568 55.17 65.6225 55.2487 65.6751C55.3274 65.7277 55.4074 65.7784 55.4887 65.8271C55.5699 65.8758 55.6523 65.9225 55.7358 65.9671C55.8194 66.0118 55.904 66.0544 55.9896 66.0949C56.0752 66.1353 56.1618 66.1737 56.2493 66.21C56.3368 66.2462 56.4251 66.2803 56.5143 66.3122C56.6035 66.3442 56.6934 66.3739 56.784 66.4014C56.8746 66.4288 56.9659 66.4541 57.0577 66.4771C57.1496 66.5001 57.242 66.5209 57.3349 66.5394C57.4278 66.5579 57.5211 66.5741 57.6148 66.5879C57.7085 66.6019 57.8025 66.6135 57.8967 66.6228C57.991 66.6321 58.0855 66.639 58.18 66.6437C58.2746 66.6483 58.3693 66.6506 58.464 66.6506C58.5587 66.6506 58.6534 66.6483 58.748 66.6437C58.8425 66.639 58.937 66.6321 59.0313 66.6228C59.1255 66.6136 59.2195 66.6019 59.3131 66.588C59.4068 66.5742 59.5001 66.558 59.593 66.5395C59.686 66.521 59.7784 66.5002 59.8702 66.4773C59.9621 66.4543 60.0534 66.429 60.144 66.4015C60.2346 66.374 60.3245 66.3443 60.4137 66.3124C60.5029 66.2805 60.5912 66.2465 60.6787 66.2102C60.7662 66.1739 60.8528 66.1356 60.9384 66.0951C61.024 66.0546 61.1087 66.012 61.1922 65.9674C61.2757 65.9227 61.3581 65.876 61.4393 65.8273C61.5206 65.7787 61.6006 65.7281 61.6793 65.6754C61.7581 65.6228 61.8355 65.5683 61.9116 65.5118C61.9877 65.4554 62.0623 65.3972 62.1355 65.3371C62.2088 65.277 62.2804 65.2152 62.3506 65.1516C62.4208 65.0879 62.4894 65.0226 62.5563 64.9557C62.6233 64.8887 62.6886 64.8201 62.7523 64.75C62.8158 64.6797 62.8777 64.6081 62.9378 64.5349C62.9979 64.4616 63.0561 64.387 63.1125 64.3109C63.169 64.2348 63.2235 64.1574 63.2761 64.0787C63.3287 64 63.3793 63.92 63.4281 63.8387C63.4768 63.7575 63.5235 63.6751 63.5681 63.5916C63.6127 63.508 63.6553 63.4234 63.6958 63.3378C63.7363 63.2522 63.7747 63.1656 63.8109 63.0781C63.8472 62.9906 63.8812 62.9023 63.9132 62.8131C63.9451 62.7239 63.9748 62.634 64.0023 62.5434C64.0297 62.4528 64.0551 62.3615 64.078 62.2696C64.101 62.1778 64.1218 62.0854 64.1403 61.9925C64.1588 61.8996 64.1749 61.8063 64.1889 61.7126C64.2027 61.6189 64.2143 61.5249 64.2236 61.4307C64.2329 61.3364 64.2399 61.2419 64.2445 61.1473C64.2492 61.0528 64.2515 60.9581 64.2515 60.8634C64.2514 60.7687 64.2489 60.6741 64.2442 60.5795C64.2395 60.4849 64.2324 60.3906 64.2231 60.2964C64.2137 60.2022 64.202 60.1082 64.188 60.0146C64.174 59.921 64.1578 59.8277 64.1392 59.7349C64.1207 59.6421 64.0999 59.5498 64.0768 59.4579C64.0537 59.3661 64.0284 59.2749 64.0009 59.1843C63.9734 59.0937 63.9436 59.0039 63.9116 58.9148C63.8797 58.8256 63.8456 58.7373 63.8093 58.6499C63.773 58.5624 63.7347 58.4759 63.6941 58.3903C63.6536 58.3048 63.611 58.2202 63.5663 58.1368C63.5217 58.0533 63.475 57.971 63.4264 57.8898C63.3776 57.8086 63.327 57.7286 63.2744 57.6499C63.2218 57.5712 63.1672 57.4939 63.1108 57.4178C63.0544 57.3418 62.9962 57.2672 62.9361 57.194C62.8761 57.1208 62.8142 57.0491 62.7507 56.979C62.6871 56.9088 62.6218 56.8403 62.5549 56.7733C62.4879 56.7064 62.4194 56.6411 62.3492 56.5775C62.2791 56.5139 62.2074 56.4521 62.1342 56.3921C62.0611 56.332 61.9865 56.2737 61.9105 56.2173C61.8344 56.1609 61.757 56.1064 61.6783 56.0537C61.5996 56.0011 61.5197 55.9504 61.4385 55.9017C61.3574 55.853 61.2751 55.8063 61.1915 55.7616C61.108 55.7169 61.0235 55.6743 60.938 55.6338C60.8524 55.5933 60.7659 55.5549 60.6785 55.5186C60.591 55.4823 60.5028 55.4482 60.4137 55.4162C60.3245 55.3843 60.2347 55.3545 60.1441 55.3269C60.0535 55.2994 59.9623 55.2741 59.8705 55.251C59.7786 55.2279 59.6863 55.2071 59.5935 55.1885C59.5007 55.17 59.4074 55.1537 59.3138 55.1397C59.2202 55.1257 59.1262 55.114 59.032 55.1046C58.9378 55.0952 58.8435 55.0882 58.7489 55.0834C58.6543 55.0787 58.5597 55.0762 58.465 55.0761Z"   fill="#27A4D6" >
</path>
<path d="M75.0973 62.7012L66.0933 62.7012C66.0631 62.7012 66.033 62.7004 66.0029 62.6989C65.9728 62.6975 65.9427 62.6953 65.9128 62.6923C65.8828 62.6894 65.8529 62.6857 65.823 62.6812C65.7932 62.6768 65.7636 62.6717 65.734 62.6658C65.7044 62.6599 65.675 62.6533 65.6457 62.646C65.6165 62.6387 65.5875 62.6307 65.5586 62.6219C65.5298 62.6132 65.5012 62.6037 65.4728 62.5936C65.4444 62.5834 65.4163 62.5725 65.3884 62.561C65.3606 62.5494 65.3331 62.5372 65.3058 62.5244C65.2786 62.5115 65.2517 62.4979 65.2251 62.4837C65.1985 62.4695 65.1723 62.4546 65.1464 62.4392C65.1206 62.4237 65.0951 62.4076 65.0701 62.3908C65.045 62.374 65.0203 62.3567 64.9961 62.3388C64.9719 62.3208 64.9482 62.3022 64.9249 62.2831C64.9015 62.264 64.8787 62.2443 64.8564 62.2241C64.8341 62.2038 64.8123 62.1831 64.7909 62.1617C64.7696 62.1404 64.7488 62.1186 64.7286 62.0963C64.7084 62.074 64.6887 62.0511 64.6696 62.0278C64.6505 62.0045 64.6319 61.9808 64.6139 61.9565C64.596 61.9324 64.5786 61.9077 64.5619 61.8826C64.5451 61.8576 64.529 61.8321 64.5135 61.8062C64.498 61.7804 64.4832 61.7542 64.469 61.7276C64.4548 61.701 64.4412 61.6741 64.4283 61.6469C64.4154 61.6196 64.4032 61.5921 64.3917 61.5642C64.3802 61.5364 64.3693 61.5082 64.3591 61.4798C64.349 61.4515 64.3395 61.4229 64.3308 61.3941C64.322 61.3652 64.314 61.3362 64.3067 61.3069C64.2994 61.2777 64.2928 61.2483 64.2869 61.2187C64.281 61.1891 64.2759 61.1594 64.2714 61.1297C64.267 61.0998 64.2633 61.0699 64.2604 61.04C64.2574 61.01 64.2552 60.9799 64.2537 60.9498C64.2522 60.9197 64.2515 60.8895 64.2515 60.8594C64.2515 60.8292 64.2522 60.7991 64.2537 60.7691C64.2552 60.739 64.2574 60.7089 64.2604 60.6789C64.2633 60.6489 64.267 60.619 64.2714 60.5891C64.2759 60.5593 64.281 60.5297 64.2869 60.5001C64.2928 60.4705 64.2994 60.4411 64.3067 60.4118C64.314 60.3826 64.322 60.3536 64.3308 60.3247C64.3395 60.2959 64.349 60.2673 64.3591 60.2389C64.3693 60.2105 64.3802 60.1824 64.3917 60.1545C64.4032 60.1267 64.4154 60.0992 64.4283 60.0719C64.4412 60.0447 64.4548 60.0178 64.469 59.9912C64.4832 59.9646 64.498 59.9384 64.5135 59.9125C64.529 59.8867 64.5451 59.8612 64.5619 59.8362C64.5786 59.8111 64.596 59.7864 64.6139 59.7622C64.6319 59.738 64.6504 59.7142 64.6696 59.691C64.6887 59.6677 64.7084 59.6449 64.7286 59.6225C64.7488 59.6002 64.7696 59.5784 64.7909 59.5571C64.8123 59.5357 64.8341 59.5149 64.8564 59.4947C64.8787 59.4745 64.9015 59.4548 64.9249 59.4357C64.9482 59.4166 64.9719 59.398 64.9961 59.38C65.0203 59.3621 65.045 59.3447 65.0701 59.328C65.0951 59.3112 65.1206 59.2951 65.1464 59.2796C65.1723 59.2641 65.1985 59.2493 65.2251 59.2351C65.2517 59.2209 65.2786 59.2073 65.3058 59.1944C65.3331 59.1815 65.3606 59.1693 65.3884 59.1578C65.4163 59.1463 65.4444 59.1354 65.4728 59.1252C65.5012 59.1151 65.5298 59.1056 65.5586 59.0969C65.5875 59.0881 65.6165 59.0801 65.6457 59.0728C65.675 59.0655 65.7044 59.0589 65.734 59.053C65.7636 59.0471 65.7932 59.042 65.823 59.0375C65.8529 59.0331 65.8828 59.0294 65.9128 59.0265C65.9427 59.0235 65.9728 59.0213 66.0029 59.0198C66.033 59.0183 66.0631 59.0176 66.0933 59.0176L75.0973 59.0176C75.1275 59.0176 75.1576 59.0183 75.1877 59.0198C75.2177 59.0213 75.2477 59.0235 75.2778 59.0265C75.3078 59.0294 75.3377 59.0331 75.3675 59.0375C75.3973 59.042 75.427 59.0471 75.4566 59.053C75.4861 59.0589 75.5155 59.0655 75.5448 59.0728C75.574 59.0801 75.6031 59.0881 75.632 59.0969C75.6608 59.1056 75.6894 59.1151 75.7177 59.1252C75.7461 59.1354 75.7743 59.1463 75.8021 59.1578C75.8299 59.1693 75.8575 59.1815 75.8848 59.1944C75.912 59.2073 75.9389 59.2209 75.9655 59.2351C75.9921 59.2493 76.0182 59.2641 76.0441 59.2796C76.07 59.2951 76.0954 59.3112 76.1205 59.328C76.1456 59.3447 76.1702 59.3621 76.1944 59.38C76.2187 59.398 76.2424 59.4166 76.2657 59.4357C76.289 59.4548 76.3118 59.4745 76.3342 59.4947C76.3565 59.5149 76.3783 59.5357 76.3996 59.5571C76.421 59.5784 76.4417 59.6002 76.462 59.6225C76.4822 59.6449 76.5018 59.6677 76.521 59.691C76.5401 59.7142 76.5586 59.738 76.5766 59.7622C76.5946 59.7864 76.612 59.8111 76.6287 59.8362C76.6454 59.8612 76.6615 59.8867 76.6771 59.9125C76.6925 59.9384 76.7074 59.9646 76.7216 59.9912C76.7357 60.0178 76.7494 60.0447 76.7623 60.0719C76.7751 60.0992 76.7873 60.1267 76.7989 60.1545C76.8104 60.1824 76.8213 60.2105 76.8314 60.2389C76.8416 60.2673 76.8511 60.2959 76.8598 60.3247C76.8685 60.3536 76.8766 60.3826 76.8839 60.4118C76.8912 60.4411 76.8978 60.4705 76.9037 60.5001C76.9095 60.5297 76.9147 60.5593 76.9191 60.5891C76.9235 60.619 76.9272 60.6489 76.9302 60.6789C76.9331 60.7089 76.9354 60.739 76.9368 60.7691C76.9383 60.7991 76.9391 60.8292 76.9391 60.8594C76.9391 60.8895 76.9383 60.9197 76.9368 60.9498C76.9354 60.9799 76.9331 61.0099 76.9302 61.0399C76.9272 61.0699 76.9235 61.0998 76.9191 61.1297C76.9147 61.1594 76.9095 61.1891 76.9037 61.2187C76.8978 61.2483 76.8912 61.2777 76.8839 61.3069C76.8766 61.3362 76.8685 61.3652 76.8598 61.3941C76.8511 61.4229 76.8416 61.4515 76.8314 61.4799C76.8213 61.5083 76.8104 61.5364 76.7989 61.5642C76.7873 61.5921 76.7751 61.6196 76.7623 61.6469C76.7494 61.6741 76.7357 61.701 76.7216 61.7276C76.7074 61.7542 76.6925 61.7804 76.6771 61.8062C76.6615 61.8321 76.6454 61.8576 76.6287 61.8826C76.612 61.9077 76.5946 61.9324 76.5766 61.9565C76.5586 61.9808 76.5401 62.0045 76.521 62.0278C76.5018 62.0511 76.4822 62.074 76.462 62.0963C76.4417 62.1186 76.421 62.1404 76.3996 62.1617C76.3783 62.1831 76.3565 62.2038 76.3342 62.2241C76.3118 62.2443 76.289 62.264 76.2657 62.2831C76.2424 62.3022 76.2187 62.3208 76.1944 62.3388C76.1702 62.3567 76.1456 62.374 76.1205 62.3908C76.0954 62.4076 76.07 62.4237 76.0441 62.4392C76.0182 62.4546 75.9921 62.4695 75.9655 62.4837C75.9389 62.4979 75.912 62.5115 75.8848 62.5244C75.8575 62.5372 75.8299 62.5494 75.8021 62.561C75.7743 62.5725 75.7461 62.5834 75.7177 62.5936C75.6894 62.6037 75.6608 62.6132 75.632 62.6219C75.6031 62.6307 75.5741 62.6387 75.5448 62.646C75.5156 62.6533 75.4861 62.6599 75.4566 62.6658C75.427 62.6717 75.3973 62.6768 75.3675 62.6812C75.3377 62.6857 75.3078 62.6894 75.2778 62.6923C75.2477 62.6953 75.2177 62.6975 75.1877 62.6989C75.1576 62.7004 75.1275 62.7012 75.0973 62.7012Z"   fill="#27A4D6" >
</path>
</svg>
