<svg xmlns="http://www.w3.org/2000/svg" xmlns:xlink="http://www.w3.org/1999/xlink" width="33" height="33" viewBox="0 0 33 33" fill="none">
<path d="M20.1215 27.0721C16.0735 29.9197 10.5909 29.4404 7.08516 25.9343C3.53593 22.3838 3.08782 16.857 6.02001 12.7927C6.34518 12.3422 6.2435 11.7133 5.79294 11.3881C5.34258 11.0626 4.71371 11.1642 4.38874 11.6152C0.875818 16.4842 1.4115 23.1047 5.66278 27.3573C8.02805 29.7231 11.1446 30.9376 14.2829 30.9376C16.7153 30.9376 19.1609 30.2075 21.2786 28.7182C21.7331 28.3985 21.8425 27.771 21.5229 27.3164C21.2033 26.8615 20.576 26.7524 20.1215 27.0721Z"   fill="#57A2F7" >
</path>
<path d="M30.9093 2.89218C30.9034 2.86253 30.8923 2.83506 30.8839 2.80637C30.8739 2.77221 30.866 2.73761 30.8523 2.70444C30.8381 2.67018 30.8186 2.63904 30.8009 2.60682C30.7871 2.58169 30.7761 2.55551 30.76 2.5314C30.6863 2.421 30.5915 2.32612 30.4811 2.25235C30.4564 2.23586 30.4297 2.22455 30.404 2.2105C30.3723 2.19309 30.3418 2.17399 30.3082 2.16001C30.2747 2.14616 30.2397 2.13815 30.2053 2.12806C30.1769 2.11971 30.1498 2.10873 30.1204 2.10289C30.0266 2.08423 29.9311 2.08314 29.8362 2.09138C29.8084 2.08908 29.7817 2.08301 29.7532 2.08301L22.5885 2.08301C22.033 2.08301 21.5827 2.53355 21.5827 3.08919C21.5827 3.64483 22.033 4.09536 22.5885 4.09536L27.495 4.09536L22.1532 9.43888C17.8837 5.8278 11.546 5.57111 7.00736 8.95542C6.56206 9.28754 6.47005 9.91786 6.80205 10.3635C7.13375 10.809 7.76375 10.901 8.2097 10.5688C12.2238 7.57551 17.9259 7.99391 21.4731 11.5421C25.014 15.0839 25.4366 20.7819 22.4557 24.7961C22.1243 25.2422 22.2174 25.8725 22.6633 26.2038C22.8435 26.3378 23.0539 26.4023 23.2623 26.4023C23.5698 26.4023 23.8734 26.2619 24.0706 25.9961C27.4404 21.4581 27.1789 15.1257 23.5755 10.8617L28.9174 5.51826L28.9174 10.2561C28.9174 10.8118 29.3678 11.2623 29.9233 11.2623C30.4788 11.2623 30.9292 10.8117 30.9292 10.2561L30.9292 3.08922C30.9292 3.02317 30.9223 2.95721 30.9093 2.89218Z"   fill="#57A2F7" >
</path>
<path d="M12.798 15.6727C13.0554 15.6727 13.3127 15.5745 13.5092 15.3781L14.2032 14.6841C14.5962 14.2912 14.5962 13.6541 14.2034 13.2611C13.8106 12.868 13.1739 12.8682 12.7808 13.2609L12.0868 13.9549C11.6939 14.3478 11.6939 14.9849 12.0866 15.3779C12.2831 15.5745 12.5405 15.6727 12.798 15.6727Z"   fill="#57A2F7" >
</path>
<path d="M19.0606 20.9312L19.7546 20.2371C20.1475 19.8442 20.1475 19.2072 19.7548 18.8141C19.362 18.4213 18.7253 18.4211 18.3322 18.814L17.6382 19.508C17.2453 19.901 17.2453 20.538 17.638 20.931C17.8345 21.1275 18.0919 21.2258 18.3494 21.2258C18.6067 21.2258 18.8641 21.1275 19.0606 20.9312Z"   fill="#57A2F7" >
</path>
<path d="M10.9167 18.3492C10.761 19.0157 10.7661 20.4121 11.7721 21.4183C12.5059 22.1525 13.4538 22.3587 14.1713 22.3587C14.4324 22.3587 14.6632 22.3314 14.8419 22.2922C15.3846 22.1732 15.7281 21.6367 15.6092 21.0939C15.49 20.551 14.9537 20.2071 14.4113 20.3263C14.4036 20.328 13.6638 20.4647 13.1947 19.9953C12.7395 19.5403 12.8686 18.8449 12.8782 18.7966C12.9977 18.2589 12.6626 17.7239 12.1251 17.5982C11.585 17.4718 11.0431 17.8083 10.9167 18.3492Z"   fill="#57A2F7" >
</path>
</svg>
