<svg xmlns="http://www.w3.org/2000/svg" xmlns:xlink="http://www.w3.org/1999/xlink" width="87" height="87" viewBox="0 0 87 87" fill="none">
<path d="M43.4999 45.4394L43.5108 45.1747L45.0043 26.4915C45.2182 23.8017 47.0271 21.75 49.1876 21.75L51.0907 21.75C51.8665 21.75 52.6495 21.9747 53.2838 22.5258C54.6287 23.6857 56.2454 24.3817 58 24.3817C59.7544 24.3817 61.3712 23.6857 62.7124 22.5258C62.7504 22.4937 62.789 22.4626 62.8284 22.4324C62.8677 22.4022 62.9077 22.3729 62.9483 22.3445C62.989 22.316 63.0303 22.2886 63.0722 22.262C63.1141 22.2354 63.1566 22.2098 63.1997 22.1852C63.2427 22.1604 63.2863 22.1368 63.3304 22.1141C63.3746 22.0915 63.4192 22.0698 63.4642 22.0491C63.5093 22.0285 63.5549 22.0088 63.6008 21.9902C63.6469 21.9716 63.6933 21.954 63.74 21.9375C63.7868 21.9209 63.834 21.9055 63.8815 21.8911C63.929 21.8768 63.9767 21.8634 64.0248 21.8512C64.0729 21.839 64.1212 21.8278 64.1697 21.8177C64.2183 21.8077 64.2672 21.7988 64.3161 21.7909C64.3652 21.783 64.4143 21.7762 64.4635 21.7706C64.5128 21.7649 64.5623 21.7604 64.6117 21.757C64.6612 21.7537 64.7108 21.7514 64.7604 21.7502C64.81 21.749 64.8596 21.7489 64.9092 21.75L66.8159 21.75C68.9764 21.75 70.7817 23.8017 70.9992 26.4915L72.4927 45.1747C72.616 46.7262 71.6444 48.0711 70.401 48.0711L70.2996 48.0711C69.27 48.0711 68.3928 47.1395 68.226 45.8707L66.4136 32.277L66.4136 47.125L68.2877 69.6036C68.4109 71.1551 67.4395 72.5 66.1961 72.5L63.963 72.5C62.9481 72.5 62.0781 71.5901 61.8968 70.3395L58.5509 45.5916C58.4422 44.8267 57.565 44.8267 57.4562 45.5916L54.1103 70.3395C53.9291 71.5901 53.0591 72.5 52.044 72.5L49.8111 72.5C48.5677 72.5 47.5962 71.1551 47.7194 69.6036L49.5899 47.125L49.5899 32.277L47.7775 45.8707C47.6107 47.1395 46.7298 48.0711 45.7039 48.0711L45.6025 48.0711C44.4315 48.0711 43.4999 46.8749 43.4999 45.443C43.4999 46.8785 42.5683 48.0711 41.3974 48.0711L41.296 48.0711C40.2664 48.0711 39.3892 47.1395 39.2224 45.8707L37.4099 32.277L37.4099 47.125L39.2841 69.6036C39.4073 71.1551 38.4358 72.5 37.1924 72.5L34.9594 72.5C33.9445 72.5 33.0745 71.5901 32.8932 70.3395L29.5473 45.5916C29.4386 44.8267 28.5614 44.8267 28.4526 45.5916L25.1067 70.3395C24.9254 71.5901 24.0554 72.5 23.0404 72.5L20.8075 72.5C19.5641 72.5 18.5926 71.1551 18.7159 69.6036L20.59 47.125L20.59 32.277L18.7774 45.8707C18.6108 47.1395 17.7299 48.0711 16.704 48.0711L16.6024 48.0711C15.3591 48.0711 14.3876 46.7262 14.5109 45.1747L16.0043 26.4915C16.2183 23.8017 18.0271 21.75 20.1876 21.75L22.0908 21.75C22.8664 21.75 23.6494 21.9747 24.2838 22.5258C25.6287 23.6857 27.2455 24.3817 28.9999 24.3817C30.7544 24.3817 32.3712 23.6857 33.7124 22.5258C33.7504 22.4937 33.7891 22.4626 33.8283 22.4324C33.8678 22.4022 33.9078 22.3729 33.9484 22.3445C33.9891 22.316 34.0304 22.2886 34.0722 22.262C34.1141 22.2354 34.1566 22.2098 34.1996 22.1852C34.2428 22.1604 34.2864 22.1368 34.3305 22.1141C34.3746 22.0915 34.4192 22.0698 34.4643 22.0491C34.5094 22.0285 34.5549 22.0088 34.6009 21.9902C34.6469 21.9716 34.6933 21.9541 34.74 21.9375C34.7869 21.9209 34.834 21.9055 34.8814 21.8911C34.929 21.8768 34.9767 21.8634 35.0248 21.8512C35.0729 21.839 35.1212 21.8278 35.1698 21.8177C35.2184 21.8077 35.2672 21.7988 35.3162 21.7909C35.3652 21.783 35.4143 21.7762 35.4636 21.7706C35.5129 21.7649 35.5623 21.7604 35.6117 21.757C35.6613 21.7537 35.7108 21.7514 35.7604 21.7502C35.81 21.749 35.8596 21.7489 35.9092 21.75L37.816 21.75C39.9764 21.75 41.7817 23.8017 41.9992 26.4915L43.4927 45.1747C43.4999 45.2628 43.5034 45.351 43.5036 45.4394L43.4999 45.4394ZM23.5624 16.3125C23.5624 16.2235 23.5646 16.1346 23.569 16.0457C23.5734 15.9568 23.5799 15.8681 23.5887 15.7795C23.5973 15.691 23.6082 15.6026 23.6213 15.5146C23.6344 15.4266 23.6496 15.339 23.6669 15.2517C23.6843 15.1644 23.7038 15.0776 23.7254 14.9913C23.747 14.905 23.7707 14.8192 23.7966 14.7341C23.8224 14.6489 23.8504 14.5644 23.8803 14.4807C23.9103 14.3969 23.9424 14.3139 23.9763 14.2316C24.0104 14.1495 24.0464 14.0681 24.0845 13.9876C24.1226 13.9072 24.1626 13.8278 24.2045 13.7493C24.2464 13.6708 24.2904 13.5934 24.3361 13.517C24.3818 13.4407 24.4294 13.3656 24.4788 13.2915C24.5283 13.2176 24.5795 13.1448 24.6325 13.0734C24.6855 13.0019 24.7403 12.9318 24.7967 12.863C24.8531 12.7942 24.9113 12.7268 24.971 12.6609C25.0308 12.5949 25.0921 12.5305 25.155 12.4676C25.218 12.4047 25.2825 12.3433 25.3484 12.2836C25.4143 12.2238 25.4817 12.1657 25.5504 12.1092C25.6192 12.0528 25.6894 11.9981 25.7609 11.9451C25.8323 11.8921 25.905 11.8408 25.979 11.7914C26.053 11.7419 26.1282 11.6943 26.2045 11.6486C26.2808 11.6029 26.3582 11.559 26.4367 11.5171C26.5152 11.4751 26.5948 11.4351 26.6751 11.3971C26.7556 11.359 26.8369 11.323 26.9191 11.2889C27.0014 11.2548 27.0843 11.2228 27.1681 11.1928C27.2519 11.1629 27.3364 11.135 27.4215 11.1092C27.5067 11.0833 27.5925 11.0596 27.6788 11.038C27.7651 11.0163 27.8519 10.9968 27.9392 10.9795C28.0264 10.9621 28.1141 10.9469 28.2021 10.9339C28.2902 10.9208 28.3784 10.9099 28.467 10.9012C28.5556 10.8924 28.6443 10.8859 28.7331 10.8815C28.822 10.8772 28.911 10.875 28.9999 10.875C29.089 10.875 29.1779 10.8772 29.2668 10.8815C29.3556 10.8859 29.4443 10.8924 29.5329 10.9012C29.6215 10.9099 29.7098 10.9208 29.7978 10.9339C29.8858 10.9469 29.9735 10.9621 30.0607 10.9795C30.1481 10.9968 30.2348 11.0163 30.3211 11.038C30.4075 11.0596 30.4933 11.0833 30.5784 11.1092C30.6635 11.135 30.748 11.1629 30.8318 11.1928C30.9156 11.2228 30.9986 11.2548 31.0808 11.2889C31.163 11.323 31.2444 11.359 31.3248 11.3971C31.4052 11.4351 31.4847 11.4751 31.5632 11.5171C31.6417 11.559 31.7191 11.6029 31.7954 11.6486C31.8717 11.6943 31.9469 11.7419 32.0209 11.7914C32.0949 11.8408 32.1676 11.8921 32.2391 11.9451C32.3106 11.9981 32.3807 12.0528 32.4495 12.1092C32.5183 12.1657 32.5856 12.2238 32.6515 12.2836C32.7175 12.3433 32.782 12.4047 32.8448 12.4676C32.9078 12.5305 32.9691 12.5949 33.0288 12.6609C33.0887 12.7268 33.1468 12.7942 33.2032 12.863C33.2597 12.9318 33.3144 13.0019 33.3674 13.0734C33.4204 13.1448 33.4717 13.2176 33.521 13.2915C33.5705 13.3656 33.6181 13.4407 33.6638 13.517C33.7096 13.5934 33.7535 13.6708 33.7954 13.7493C33.8373 13.8278 33.8774 13.9072 33.9154 13.9876C33.9535 14.0681 33.9895 14.1495 34.0236 14.2316C34.0576 14.3139 34.0897 14.3969 34.1196 14.4807C34.1496 14.5644 34.1775 14.6489 34.2033 14.7341C34.2292 14.8192 34.2529 14.905 34.2745 14.9913C34.2961 15.0776 34.3157 15.1644 34.333 15.2517C34.3503 15.339 34.3655 15.4266 34.3786 15.5146C34.3917 15.6026 34.4026 15.691 34.4112 15.7795C34.42 15.8681 34.4265 15.9568 34.4309 16.0457C34.4353 16.1346 34.4374 16.2235 34.4374 16.3125C34.4374 16.4015 34.4353 16.4904 34.4309 16.5793C34.4265 16.6682 34.42 16.7569 34.4112 16.8455C34.4026 16.934 34.3917 17.0223 34.3786 17.1104C34.3655 17.1984 34.3503 17.286 34.333 17.3733C34.3157 17.4606 34.2961 17.5474 34.2745 17.6337C34.2529 17.72 34.2292 17.8058 34.2033 17.8909C34.1775 17.9761 34.1496 18.0606 34.1196 18.1443C34.0897 18.2281 34.0576 18.3111 34.0236 18.3934C33.9895 18.4755 33.9535 18.5569 33.9154 18.6374C33.8774 18.7178 33.8373 18.7972 33.7954 18.8757C33.7535 18.9542 33.7096 19.0316 33.6638 19.108C33.6181 19.1843 33.5705 19.2594 33.521 19.3334C33.4716 19.4074 33.4204 19.4802 33.3674 19.5516C33.3144 19.6231 33.2597 19.6933 33.2032 19.762C33.1468 19.8308 33.0887 19.8982 33.0288 19.9641C32.9691 20.03 32.9078 20.0944 32.8448 20.1574C32.782 20.2204 32.7175 20.2817 32.6515 20.3414C32.5856 20.4012 32.5183 20.4593 32.4495 20.5158C32.3807 20.5722 32.3106 20.6269 32.2391 20.6799C32.1676 20.7329 32.0949 20.7842 32.0209 20.8336C31.9469 20.8831 31.8717 20.9306 31.7954 20.9764C31.7191 21.0221 31.6417 21.066 31.5632 21.1079C31.4847 21.1499 31.4052 21.1899 31.3248 21.2279C31.2444 21.266 31.163 21.302 31.0808 21.3361C30.9986 21.3701 30.9156 21.4022 30.8318 21.4322C30.748 21.4621 30.6635 21.49 30.5784 21.5158C30.4933 21.5417 30.4075 21.5654 30.3211 21.587C30.2348 21.6087 30.1481 21.6282 30.0607 21.6455C29.9735 21.6629 29.8858 21.6781 29.7978 21.6911C29.7098 21.7042 29.6215 21.7151 29.5329 21.7238C29.4443 21.7326 29.3556 21.7391 29.2668 21.7435C29.1779 21.7478 29.089 21.75 28.9999 21.75C28.911 21.75 28.822 21.7478 28.7331 21.7435C28.6443 21.7391 28.5556 21.7326 28.467 21.7238C28.3784 21.7151 28.2902 21.7042 28.2021 21.6911C28.1141 21.6781 28.0264 21.6629 27.9392 21.6455C27.8519 21.6282 27.7651 21.6087 27.6788 21.587C27.5925 21.5654 27.5067 21.5417 27.4215 21.5158C27.3364 21.49 27.2519 21.4621 27.1681 21.4322C27.0843 21.4022 27.0014 21.3701 26.9191 21.3361C26.8369 21.302 26.7556 21.266 26.6751 21.2279C26.5948 21.1899 26.5152 21.1499 26.4367 21.1079C26.3582 21.066 26.2808 21.0221 26.2045 20.9764C26.1282 20.9306 26.053 20.8831 25.979 20.8336C25.9051 20.7842 25.8324 20.7329 25.7609 20.6799C25.6894 20.6269 25.6192 20.5722 25.5504 20.5158C25.4817 20.4593 25.4143 20.4012 25.3484 20.3414C25.2825 20.2817 25.218 20.2204 25.155 20.1574C25.0921 20.0944 25.0308 20.03 24.971 19.9641C24.9113 19.8982 24.8531 19.8308 24.7967 19.762C24.7403 19.6933 24.6855 19.6231 24.6325 19.5516C24.5795 19.4802 24.5283 19.4074 24.4788 19.3334C24.4294 19.2594 24.3818 19.1843 24.3361 19.108C24.2904 19.0316 24.2464 18.9542 24.2045 18.8757C24.1626 18.7972 24.1226 18.7178 24.0845 18.6374C24.0464 18.5569 24.0104 18.4755 23.9763 18.3934C23.9424 18.3111 23.9103 18.2281 23.8803 18.1443C23.8504 18.0606 23.8224 17.9761 23.7966 17.8909C23.7707 17.8058 23.747 17.72 23.7254 17.6337C23.7038 17.5474 23.6843 17.4606 23.6669 17.3733C23.6496 17.286 23.6344 17.1984 23.6213 17.1104C23.6082 17.0223 23.5973 16.934 23.5887 16.8455C23.5799 16.7569 23.5734 16.6682 23.569 16.5793C23.5646 16.4904 23.5624 16.4015 23.5624 16.3125ZM58 10.875C58.089 10.875 58.1779 10.8772 58.2667 10.8815C58.3556 10.8859 58.4444 10.8924 58.5329 10.9012C58.6215 10.9099 58.7097 10.9208 58.7977 10.9339C58.8858 10.9469 58.9734 10.9621 59.0607 10.9795C59.148 10.9968 59.2348 11.0163 59.3211 11.038C59.4074 11.0596 59.4932 11.0833 59.5784 11.1092C59.6635 11.135 59.748 11.1629 59.8318 11.1928C59.9156 11.2228 59.9986 11.2548 60.0807 11.2889C60.163 11.323 60.2444 11.359 60.3247 11.3971C60.4052 11.4351 60.4846 11.4751 60.5631 11.5171C60.6417 11.559 60.7191 11.6029 60.7953 11.6486C60.8717 11.6943 60.9469 11.7419 61.0208 11.7914C61.0948 11.8408 61.1676 11.8921 61.239 11.9451C61.3106 11.9981 61.3806 12.0528 61.4495 12.1092C61.5183 12.1657 61.5856 12.2238 61.6515 12.2836C61.7175 12.3433 61.782 12.4047 61.8449 12.4676C61.9077 12.5305 61.9691 12.5949 62.0289 12.6609C62.0887 12.7268 62.1467 12.7942 62.2031 12.863C62.2596 12.9318 62.3144 13.0019 62.3674 13.0734C62.4204 13.1448 62.4716 13.2176 62.5211 13.2915C62.5705 13.3656 62.6181 13.4407 62.6638 13.517C62.7096 13.5934 62.7534 13.6708 62.7954 13.7493C62.8374 13.8278 62.8773 13.9072 62.9154 13.9876C62.9534 14.0681 62.9896 14.1495 63.0235 14.2316C63.0576 14.3139 63.0896 14.3969 63.1195 14.4807C63.1496 14.5644 63.1775 14.6489 63.2033 14.7341C63.2291 14.8192 63.2529 14.905 63.2745 14.9913C63.2961 15.0776 63.3156 15.1644 63.333 15.2517C63.3503 15.339 63.3655 15.4266 63.3786 15.5146C63.3917 15.6026 63.4025 15.691 63.4113 15.7795C63.42 15.8681 63.4265 15.9568 63.4309 16.0457C63.4353 16.1346 63.4375 16.2235 63.4375 16.3125C63.4375 16.4015 63.4353 16.4904 63.4309 16.5793C63.4265 16.6682 63.42 16.7569 63.4113 16.8455C63.4025 16.934 63.3917 17.0223 63.3786 17.1104C63.3655 17.1984 63.3503 17.286 63.333 17.3733C63.3156 17.4606 63.2961 17.5474 63.2745 17.6337C63.2529 17.72 63.2291 17.8058 63.2033 17.8909C63.1775 17.9761 63.1496 18.0606 63.1195 18.1443C63.0896 18.2281 63.0576 18.3111 63.0235 18.3934C62.9896 18.4755 62.9534 18.5569 62.9154 18.6374C62.8773 18.7178 62.8374 18.7972 62.7954 18.8757C62.7534 18.9542 62.7096 19.0316 62.6638 19.108C62.6181 19.1843 62.5705 19.2594 62.5211 19.3334C62.4716 19.4074 62.4204 19.4802 62.3674 19.5516C62.3144 19.6231 62.2596 19.6933 62.2031 19.762C62.1467 19.8308 62.0886 19.8982 62.0288 19.9641C61.9691 20.03 61.9077 20.0944 61.8448 20.1574C61.7819 20.2204 61.7174 20.2817 61.6515 20.3414C61.5856 20.4012 61.5183 20.4593 61.4495 20.5158C61.3806 20.5722 61.3106 20.6269 61.239 20.6799C61.1676 20.7329 61.0948 20.7842 61.0208 20.8336C60.9469 20.8831 60.8717 20.9306 60.7953 20.9764C60.7191 21.0221 60.6417 21.066 60.5631 21.1079C60.4846 21.1499 60.4052 21.1899 60.3247 21.2279C60.2444 21.266 60.163 21.302 60.0807 21.3361C59.9986 21.3701 59.9156 21.4022 59.8318 21.4322C59.748 21.4621 59.6635 21.49 59.5784 21.5158C59.4932 21.5417 59.4074 21.5654 59.3211 21.587C59.2348 21.6087 59.148 21.6282 59.0607 21.6455C58.9734 21.6629 58.8858 21.6781 58.7977 21.6911C58.7097 21.7042 58.6215 21.7151 58.5329 21.7238C58.4444 21.7326 58.3556 21.7391 58.2667 21.7435C58.1779 21.7478 58.089 21.75 58 21.75C57.911 21.75 57.8221 21.7478 57.7331 21.7435C57.6442 21.7391 57.5555 21.7326 57.467 21.7238C57.3785 21.7151 57.2901 21.7042 57.2021 21.6911C57.1141 21.6781 57.0265 21.6629 56.9391 21.6455C56.8519 21.6282 56.7651 21.6087 56.6787 21.587C56.5924 21.5654 56.5067 21.5417 56.4216 21.5158C56.3364 21.49 56.2519 21.4621 56.1681 21.4322C56.0844 21.4022 56.0013 21.3701 55.9191 21.3361C55.8369 21.302 55.7556 21.266 55.6751 21.2279C55.5947 21.1899 55.5152 21.1499 55.4367 21.1079C55.3583 21.066 55.2809 21.0221 55.2045 20.9764C55.1282 20.9306 55.053 20.8831 54.979 20.8336C54.9051 20.7842 54.8324 20.7329 54.7608 20.6799C54.6894 20.6269 54.6192 20.5722 54.5504 20.5158C54.4816 20.4593 54.4143 20.4012 54.3483 20.3414C54.2824 20.2817 54.218 20.2204 54.1551 20.1574C54.0922 20.0944 54.0308 20.03 53.971 19.9641C53.9113 19.8982 53.8532 19.8308 53.7967 19.762C53.7403 19.6933 53.6855 19.6231 53.6325 19.5516C53.5794 19.4802 53.5283 19.4074 53.4789 19.3334C53.4294 19.2594 53.3818 19.1843 53.336 19.108C53.2903 19.0316 53.2465 18.9542 53.2045 18.8757C53.1625 18.7972 53.1225 18.7178 53.0845 18.6374C53.0465 18.5569 53.0105 18.4755 52.9763 18.3934C52.9423 18.3111 52.9103 18.2281 52.8803 18.1443C52.8504 18.0606 52.8224 17.9761 52.7965 17.8909C52.7707 17.8058 52.747 17.72 52.7254 17.6337C52.7038 17.5474 52.6843 17.4606 52.6669 17.3733C52.6496 17.286 52.6343 17.1984 52.6213 17.1104C52.6083 17.0223 52.5974 16.934 52.5886 16.8455C52.58 16.7569 52.5734 16.6682 52.569 16.5793C52.5647 16.4904 52.5625 16.4015 52.5625 16.3125C52.5625 16.2235 52.5647 16.1346 52.569 16.0457C52.5734 15.9568 52.58 15.8681 52.5886 15.7795C52.5974 15.691 52.6083 15.6026 52.6213 15.5146C52.6343 15.4266 52.6496 15.339 52.6669 15.2517C52.6843 15.1644 52.7038 15.0776 52.7254 14.9913C52.747 14.905 52.7707 14.8192 52.7965 14.7341C52.8224 14.6489 52.8504 14.5644 52.8803 14.4807C52.9103 14.3969 52.9423 14.3139 52.9763 14.2316C53.0105 14.1495 53.0465 14.0681 53.0845 13.9876C53.1225 13.9072 53.1625 13.8278 53.2045 13.7493C53.2465 13.6708 53.2903 13.5934 53.336 13.517C53.3818 13.4407 53.4294 13.3656 53.4789 13.2915C53.5283 13.2176 53.5794 13.1448 53.6325 13.0734C53.6855 13.0019 53.7403 12.9318 53.7967 12.863C53.8532 12.7942 53.9113 12.7268 53.971 12.6609C54.0308 12.5949 54.0922 12.5305 54.1551 12.4676C54.218 12.4047 54.2824 12.3433 54.3483 12.2836C54.4143 12.2238 54.4816 12.1657 54.5504 12.1092C54.6192 12.0528 54.6894 11.9981 54.7608 11.9451C54.8324 11.8921 54.9051 11.8408 54.979 11.7914C55.053 11.7419 55.1282 11.6943 55.2045 11.6486C55.2809 11.6029 55.3583 11.559 55.4367 11.5171C55.5152 11.4751 55.5947 11.4351 55.6751 11.3971C55.7556 11.359 55.8369 11.323 55.9191 11.2889C56.0013 11.2548 56.0844 11.2228 56.1681 11.1928C56.2519 11.1629 56.3364 11.135 56.4216 11.1092C56.5067 11.0833 56.5924 11.0596 56.6787 11.038C56.7651 11.0163 56.8519 10.9968 56.9391 10.9795C57.0265 10.9621 57.1141 10.9469 57.2021 10.9339C57.2901 10.9208 57.3785 10.9099 57.467 10.9012C57.5555 10.8924 57.6442 10.8859 57.7331 10.8815C57.8221 10.8772 57.911 10.875 58 10.875Z"   fill="#F2BD35" >
</path>
</svg>
