<svg xmlns="http://www.w3.org/2000/svg" xmlns:xlink="http://www.w3.org/1999/xlink" width="120" height="120" viewBox="0 0 120 120" fill="none">
<path d="M7.5 60C7.5 78.7564 17.5064 96.0881 33.75 105.466C49.9936 114.845 70.0064 114.845 86.25 105.466C102.494 96.088 112.5 78.7563 112.5 60C112.5 31.005 88.995 7.5 60 7.5C31.005 7.5 7.5 31.005 7.5 60Z"   fill="#E78AF2" >
</path>
<path d="M87.75 27.1875C90.546 27.1875 92.8125 29.454 92.8125 32.25L92.8125 87.75C92.8125 90.546 90.546 92.8125 87.75 92.8125L32.25 92.8125C29.454 92.8125 27.1875 90.546 27.1875 87.75L27.1875 32.25C27.1875 29.454 29.454 27.1875 32.25 27.1875L87.75 27.1875ZM87.75 31.875L32.25 31.875C32.2377 31.875 32.2255 31.8756 32.2132 31.8768C32.201 31.878 32.1889 31.8798 32.1769 31.8821C32.1648 31.8846 32.1529 31.8876 32.1411 31.8912C32.1294 31.8947 32.1178 31.8988 32.1064 31.9036C32.0951 31.9083 32.0841 31.9135 32.0733 31.9193C32.0624 31.9251 32.0519 31.9314 32.0416 31.9382C32.0314 31.945 32.0216 31.9523 32.0121 31.9601C32.0026 31.9679 31.9935 31.9761 31.9848 31.9848C31.9761 31.9935 31.9679 32.0026 31.9601 32.0121C31.9523 32.0216 31.945 32.0314 31.9382 32.0416C31.9314 32.0519 31.9251 32.0624 31.9193 32.0733C31.9135 32.0841 31.9083 32.0951 31.9036 32.1064C31.8988 32.1178 31.8947 32.1294 31.8912 32.1411C31.8876 32.1529 31.8846 32.1648 31.8821 32.1769C31.8798 32.1889 31.878 32.201 31.8768 32.2132C31.8756 32.2255 31.875 32.2377 31.875 32.25L31.875 87.75C31.875 87.7623 31.8756 87.7745 31.8768 87.7868C31.878 87.799 31.8798 87.811 31.8821 87.8231C31.8846 87.8352 31.8876 87.847 31.8912 87.8589C31.8947 87.8706 31.8988 87.8822 31.9036 87.8935C31.9083 87.9049 31.9135 87.9159 31.9193 87.9267C31.9251 87.9376 31.9314 87.9482 31.9382 87.9583C31.945 87.9685 31.9523 87.9784 31.9601 87.9879C31.9679 87.9974 31.9761 88.0065 31.9848 88.0152C31.9935 88.0239 32.0026 88.0321 32.0121 88.0399C32.0216 88.0476 32.0314 88.0549 32.0416 88.0618C32.0519 88.0686 32.0624 88.075 32.0733 88.0807C32.0841 88.0864 32.0951 88.0917 32.1064 88.0964C32.1178 88.1012 32.1294 88.1053 32.1411 88.1088C32.1529 88.1124 32.1648 88.1154 32.1769 88.1178C32.1889 88.1202 32.201 88.1219 32.2132 88.1232C32.2255 88.1244 32.2377 88.125 32.25 88.125L36.5937 88.125C37.2277 75.7472 47.4647 65.9062 60 65.9062C72.5353 65.9062 82.7722 75.7472 83.4063 88.125L87.75 88.125C87.7623 88.125 87.7745 88.1244 87.7868 88.1232C87.799 88.1219 87.811 88.1202 87.8231 88.1177C87.8352 88.1154 87.847 88.1124 87.8589 88.1088C87.8706 88.1053 87.8822 88.1012 87.8935 88.0964C87.9049 88.0917 87.9159 88.0864 87.9267 88.0807C87.9376 88.075 87.9482 88.0686 87.9583 88.0618C87.9685 88.0549 87.9784 88.0476 87.9879 88.0399C87.9974 88.0321 88.0065 88.0239 88.0152 88.0152C88.0239 88.0065 88.0321 87.9974 88.0399 87.9879C88.0476 87.9784 88.0549 87.9685 88.0618 87.9583C88.0686 87.9482 88.075 87.9376 88.0807 87.9267C88.0864 87.9159 88.0917 87.9048 88.0964 87.8934C88.1012 87.8821 88.1053 87.8706 88.1088 87.8589C88.1124 87.847 88.1154 87.8352 88.1177 87.8231C88.1202 87.811 88.1219 87.799 88.1232 87.7868C88.1244 87.7745 88.125 87.7623 88.125 87.75L88.125 32.25C88.125 32.2377 88.1244 32.2255 88.1232 32.2132C88.1219 32.201 88.1202 32.1889 88.1177 32.1769C88.1154 32.1648 88.1124 32.1529 88.1088 32.1411C88.1053 32.1294 88.1012 32.1178 88.0964 32.1064C88.0917 32.0951 88.0864 32.0841 88.0807 32.0733C88.075 32.0624 88.0686 32.0519 88.0618 32.0416C88.0549 32.0314 88.0476 32.0216 88.0399 32.0121C88.0321 32.0026 88.0239 31.9935 88.0152 31.9848C88.0065 31.9761 87.9974 31.9679 87.9879 31.9601C87.9784 31.9523 87.9685 31.945 87.9583 31.9382C87.9482 31.9314 87.9376 31.9251 87.9267 31.9193C87.9159 31.9135 87.9048 31.9083 87.8934 31.9036C87.8821 31.8988 87.8706 31.8947 87.8589 31.8912C87.847 31.8876 87.8352 31.8846 87.8231 31.8821C87.811 31.8798 87.799 31.878 87.7868 31.8768C87.7745 31.8756 87.7623 31.875 87.75 31.875ZM60 36.5625C67.7665 36.5625 74.0625 42.8585 74.0625 50.625C74.0625 58.3915 67.7665 64.6875 60 64.6875C52.2335 64.6875 45.9375 58.3915 45.9375 50.625C45.9375 42.8585 52.2335 36.5625 60 36.5625Z"   fill="#F9EFFF" >
</path>
</svg>
