<svg xmlns="http://www.w3.org/2000/svg" xmlns:xlink="http://www.w3.org/1999/xlink" width="171" height="72" viewBox="0 0 171 72" fill="none">
<rect  x="0" y="7.10595703125" width="170.99986267089844" height="63" rx="20"    fill="#007AAB" >
</rect>
<path d="M44.25 44.5L44.25 46.375L51.75 46.375L51.75 44.5L44.25 44.5ZM42.375 40.75L55.5 40.75L55.5 46.375L57.375 46.375L57.375 32.875L52.125 27.625L38.625 27.625L38.625 46.375L40.5 46.375L40.5 40.75L42.375 40.75ZM53.8125 23.875L61.125 31.1875L61.125 50.125L34.875 50.125L34.875 23.875L53.8125 23.875ZM40.5 29.5L44.25 29.5L44.25 37L40.5 37L40.5 29.5Z"   fill="#F5EFDA" >
</path>
<g >
<path     fill="#F5EFDA"  d="M73.7596 38.06Q76.9596 35.9 78.4596 32.6L73.9596 32.6L73.9596 30.04L79.3596 30.04Q79.5396 29.34 79.6596 28.6L82.1196 28.6Q82.0596 29.4 81.9196 30.04L91.9595 30.04L91.9595 32.6L81.2395 32.6Q80.2396 35.34 78.4196 37.46L78.4196 47L75.8396 47L75.8396 39.86Q74.7996 40.6 73.7596 41.14L73.7596 38.06ZM79.5796 39.08L85.7196 39.08Q86.4196 38.02 87.1996 36.56L81.7996 36.56L81.7996 34.08L90.9196 34.08Q89.9196 36.78 88.5196 39.08L92.1796 39.08L92.1796 41.6L87.9196 41.6L87.9196 47L82.7796 47L82.7796 44.48L85.3396 44.48L85.3396 41.6L79.5796 41.6L79.5796 39.08ZM98.2596 33.32L98.2596 32.2L94.1596 32.2L94.1596 29.76L98.2596 29.76L98.2596 28.7L100.86 28.7L100.86 29.76L105.06 29.76L105.06 28.7L107.66 28.7L107.66 29.76L111.76 29.76L111.76 32.2L107.66 32.2L107.66 33.32L110.3 33.32L110.3 41.4L104.28 41.4L104.28 42.64L111.76 42.64L111.76 45.08L104.28 45.08L104.28 47L101.64 47L101.64 45.08L94.1596 45.08L94.1596 42.64L101.64 42.64L101.64 41.4L95.6196 41.4L95.6196 33.32L98.2596 33.32ZM107.72 39.22L107.72 38.28L98.1996 38.28L98.1996 39.22L107.72 39.22ZM107.72 36.46L107.72 35.52L98.1996 35.52L98.1996 36.46L107.72 36.46ZM105.06 33.32L105.06 32.2L100.86 32.2L100.86 33.32L105.06 33.32ZM121.52 37.94L132.04 37.94L132.04 47L129.74 47L129.74 40.14L123.82 40.14L123.82 47L121.52 47L121.52 37.94ZM113.64 46.22Q114.46 41.7 114.46 36.88L116.34 36.88Q116.34 42.04 115.62 46.22L113.64 46.22ZM113.86 33.52L116.54 33.52L116.54 31.78Q115.38 31.84 114.12 31.84L114.12 29.4Q115.7 29.4 117.25 29.26Q118.8 29.12 120.8 28.82L120.8 31.28Q120.22 31.38 119.1 31.54L119.1 33.52L121.18 33.52L121.18 35.96L119.1 35.96L119.1 37.4L121.14 38.58L121.14 41.44L119.1 40.26L119.1 47L116.68 47L116.68 35.96L113.86 35.96L113.86 33.52ZM121.38 29.52L125.48 29.52L125.48 28.8L128.08 28.8L128.08 29.52L132.18 29.52L132.18 31.72L121.38 31.72L121.38 29.52ZM122.08 32.34L131.48 32.34L131.48 37.32L122.08 37.32L122.08 32.34ZM124.52 40.94L129.04 40.94L129.04 46.4L124.52 46.4L124.52 40.94ZM128.92 35.28L128.92 34.38L124.64 34.38L124.64 35.28L128.92 35.28ZM127.36 44.3L127.36 43.04L126.2 43.04L126.2 44.3L127.36 44.3Z">
</path>
</g>
</svg>
