<svg xmlns="http://www.w3.org/2000/svg" xmlns:xlink="http://www.w3.org/1999/xlink" width="21.88232421875" height="21.8846435546875" viewBox="0 0 21.88232421875 21.8846435546875" fill="none">
<path d="M10.9412 21.8846C9.46333 21.8846 8.03225 21.5947 6.68301 21.0241C5.38055 20.4723 4.20904 19.6843 3.20588 18.6788C2.20038 17.6733 1.41237 16.5041 0.860515 15.2016C0.289956 13.8524 0 12.419 0 10.9411C0 9.4633 0.289956 8.03224 0.860515 6.68301C1.41237 5.38054 2.20038 4.20904 3.20588 3.20587C4.21137 2.20039 5.38055 1.41237 6.68301 0.860514C8.03225 0.289956 9.46566 0 10.9412 0C12.419 0 13.8501 0.289956 15.1993 0.860514C16.5018 1.41237 17.6733 2.20039 18.6764 3.20587C19.6819 4.21136 20.47 5.38054 21.0218 6.68301C21.5924 8.03224 21.8823 9.46565 21.8823 10.9411C21.8823 12.419 21.5924 13.8501 21.0218 15.1993C20.47 16.5017 19.6819 17.6733 18.6764 18.6764C17.671 19.6819 16.5018 20.4699 15.1993 21.0218C13.8524 21.5947 12.419 21.8846 10.9412 21.8846ZM10.9412 0.883897C9.58257 0.883897 8.26608 1.15047 7.02676 1.67426C5.82951 2.18169 4.75387 2.90657 3.83022 3.83022C2.90657 4.75387 2.18168 5.82951 1.67425 7.02675C1.15047 8.26608 0.883898 9.58257 0.883898 10.9411C0.883898 12.2997 1.15047 13.6162 1.67425 14.8556C2.18168 16.0528 2.90657 17.1284 3.83022 18.0521C4.75387 18.9757 5.82951 19.7006 7.02676 20.208C8.26608 20.7318 9.58257 20.9984 10.9412 20.9984C12.2997 20.9984 13.6162 20.7318 14.8556 20.208C16.0528 19.7006 17.1285 18.9757 18.0521 18.0521C18.9758 17.1284 19.7006 16.0528 20.2081 14.8556C20.7318 13.6162 20.9984 12.2997 20.9984 10.9411C20.9984 9.58257 20.7318 8.26608 20.2081 7.02675C19.7006 5.82951 18.9758 4.75387 18.0521 3.83022C17.1285 2.90657 16.0528 2.18169 14.8556 1.67426C13.6162 1.15047 12.2997 0.883897 10.9412 0.883897Z"   fill="#D68829" >
</path>
<path d="M17.2714 7.1515C17.0466 6.94071 16.6922 6.95078 16.4814 7.1761L9.02512 15.1148L4.95205 11.1015C4.73178 10.8846 4.37783 10.8869 4.1609 11.1071C3.94396 11.3269 3.94676 11.6813 4.16707 11.8977L8.6483 16.3124C8.64998 16.3141 8.6522 16.3146 8.65389 16.3163C8.65557 16.318 8.65611 16.3202 8.65779 16.3219C8.69301 16.3554 8.73552 16.3744 8.77634 16.3968C8.79646 16.4086 8.81378 16.4259 8.83503 16.4343C8.901 16.46 8.97089 16.4734 9.04022 16.4734C9.11346 16.4734 9.1867 16.4588 9.2549 16.4298C9.27784 16.4203 9.29571 16.4007 9.31697 16.3884C9.35889 16.3638 9.4025 16.3431 9.4383 16.3068C9.43998 16.3051 9.44052 16.3023 9.44221 16.3006C9.44332 16.2989 9.44557 16.2984 9.44723 16.2967L17.2954 7.94144C17.5079 7.71727 17.4962 7.36338 17.2714 7.1515Z"   fill="#D68829" >
</path>
</svg>
