<svg xmlns="http://www.w3.org/2000/svg" xmlns:xlink="http://www.w3.org/1999/xlink" width="30" height="30" viewBox="0 0 36 36" fill="none">
<path d="M20.3974 35.9486L15.5902 35.9486C15.088 35.9486 14.6465 35.6157 14.5085 35.1328L13.034 29.9723L8.34134 32.5792C7.9021 32.8231 7.35451 32.7463 6.99939 32.3911L3.60021 28.9908C3.24513 28.6356 3.16849 28.0881 3.4124 27.6491L6.01931 22.9568L0.85802 21.4819C0.37508 21.3439 0.0421143 20.9025 0.0421143 20.4002L0.0421143 15.5926C0.0421143 15.0902 0.37515 14.6488 0.858126 14.5108L6.01889 13.0366L3.41233 8.34446C3.16842 7.90539 3.24513 7.3578 3.60028 7.00262L6.99946 3.60343C7.35472 3.24821 7.90238 3.17161 8.34134 3.41549L13.0339 6.0226L14.5085 0.861595C14.6465 0.378619 15.0879 0.0456543 15.5902 0.0456543L20.3974 0.0456543C20.8997 0.0456543 21.3412 0.378619 21.4792 0.861595L22.9538 6.02257L27.6463 3.41549C28.0853 3.17157 28.6329 3.24821 28.9881 3.60336L32.3878 7.00258C32.743 7.35777 32.8197 7.90536 32.5758 8.34446L29.9691 13.0366L35.13 14.5108C35.6128 14.6488 35.9458 15.0902 35.9458 15.5926L35.9458 20.4002C35.9458 20.9024 35.6128 21.3439 35.1301 21.4819L29.9687 22.9568L32.5757 27.649C32.8196 28.0881 32.743 28.6357 32.3879 28.9908L28.9882 32.3911C28.6331 32.7463 28.0855 32.8231 27.6463 32.5792L22.9537 29.9723L21.4792 35.1328C21.3411 35.6157 20.8997 35.9486 20.3974 35.9486ZM16.4388 33.6988L19.5489 33.6988L21.1796 27.9916C21.274 27.6616 21.5137 27.3927 21.8308 27.2613C22.1479 27.13 22.5076 27.1506 22.8076 27.3173L27.9971 30.2002L30.1967 28.0001L27.3135 22.8109C27.1469 22.5109 27.1262 22.1512 27.2576 21.8341C27.3889 21.5169 27.6578 21.2771 27.9878 21.1829L33.6959 19.5517L33.6959 16.4413L27.9883 14.811C27.6583 14.7167 27.3893 14.4769 27.258 14.1598C27.1266 13.8427 27.1472 13.483 27.3139 13.1829L30.1966 7.99378L27.9972 5.79458L22.8077 8.67781C22.5077 8.84449 22.1479 8.86516 21.8308 8.73378C21.5137 8.60244 21.2739 8.33349 21.1796 8.00348L19.5488 2.29583L16.4388 2.29583L14.8079 8.00348C14.7137 8.33353 14.4739 8.60244 14.1567 8.73378C13.8397 8.86505 13.4799 8.84449 13.1799 8.67781L7.99041 5.79458L5.79125 7.99374L8.67392 13.1829C8.8406 13.483 8.86116 13.8428 8.72982 14.1598C8.59847 14.477 8.32949 14.7167 7.99948 14.811L2.29207 16.4413L2.29207 19.5517L7.99998 21.1829C8.33002 21.2772 8.59893 21.517 8.73024 21.8341C8.86155 22.1512 8.84095 22.5109 8.67427 22.8109L5.79118 28.0002L7.99052 30.2001L13.1799 27.3173C13.48 27.1506 13.8397 27.13 14.1568 27.2613C14.4739 27.3927 14.7137 27.6616 14.8079 27.9916L16.4388 33.6988ZM17.994 25.4012C13.9109 25.4012 10.5892 22.0802 10.5892 17.9982C10.5892 13.9147 13.9109 10.5925 17.994 10.5925C19.9718 10.5925 21.8312 11.3628 23.2297 12.7616C24.6281 14.1604 25.3982 16.0201 25.3982 17.9982C25.3982 19.9757 24.6281 21.8348 23.2295 23.233C21.8311 24.6312 19.9718 25.4012 17.994 25.4012ZM17.994 12.8425C15.1516 12.8425 12.8392 15.1553 12.8392 17.9982C12.8392 20.8396 15.1516 23.1512 17.994 23.1512C20.836 23.1512 23.1482 20.8396 23.1482 17.9982C23.1482 15.1553 20.836 12.8425 17.994 12.8425Z"   fill="#F2BD35" >
</path>
</svg>
