<svg xmlns="http://www.w3.org/2000/svg" xmlns:xlink="http://www.w3.org/1999/xlink" width="193" height="72" viewBox="0 0 193 72" fill="none">
<rect  x="0" y="6.46435546875" width="192.99978637695312" height="63" rx="20"    fill="#007AAB" >
</rect>
<g >
<path     fill="#F5EFDA"  d="M57.1015 47Q60.0815 41.04 62.2415 34.62L57.8815 34.62L59.5215 29.14L62.1615 29.14L61.2615 32.12L63.0615 32.12Q63.5015 30.76 64.1215 28.6L66.9415 28.6Q66.7615 29.24 66.5815 29.8Q66.4015 30.36 66.2615 30.84L65.8615 32.12L75.5015 32.12L75.5015 34.62L65.0415 34.62Q64.8415 35.26 64.5415 36.08L64.4015 36.46L74.3815 36.46Q73.6815 40.4 70.8215 43.08Q72.8415 44.14 75.3815 44.72L75.3815 47.24Q71.4015 46.38 68.7015 44.7Q66.0015 46.38 62.0215 47.24L62.0215 44.72Q64.5615 44.14 66.5815 43.08Q64.5415 41.16 63.6215 38.66Q61.9815 43.08 60.1615 47L57.1015 47ZM66.4215 38.86Q67.2615 40.46 68.7015 41.66Q70.1415 40.46 70.9815 38.86L66.4215 38.86ZM72.2415 28.9L73.0215 31.72L70.4215 31.72L69.6415 28.9L72.2415 28.9ZM80.4815 39.32Q79.0415 40.52 77.3015 41.4L77.3015 38.42Q80.6215 36.26 82.2215 33L77.5015 33L77.5015 30.44L83.1615 30.44Q83.4015 29.52 83.5215 28.6L86.0615 28.6Q85.9615 29.7 85.7815 30.44L95.5015 30.44L95.5015 33L85.0215 33Q84.4615 34.46 83.6015 35.8L86.4615 35.8L86.4615 33.66L88.9815 33.66L88.9815 35.8L94.9615 35.8L94.9615 45.52L92.4215 45.52L92.4215 38.36L88.9815 38.36L88.9815 47L86.4615 47L86.4615 38.36L83.0215 38.36L83.0215 45.52L80.4815 45.52L80.4815 39.32ZM114.981 46.8L105.361 46.8L105.361 37.12L108.721 37.12L108.721 28.9L111.321 28.9L111.321 31.46L115.661 31.46L115.661 34.06L111.321 34.06L111.321 37.12L114.981 37.12L114.981 46.8ZM97.7415 30.84L100.061 30.84L100.061 28.8L102.681 28.8L102.681 30.84L104.961 30.84L104.961 44.52L103.121 44.52L103.121 33.44L102.561 33.44L102.561 47L100.181 47L100.181 33.44L99.6215 33.44L99.6215 44.52L97.7415 44.52L97.7415 30.84ZM112.461 44.22L112.461 39.7L107.881 39.7L107.881 44.22L112.461 44.22ZM122.301 44.4L126.141 44.4L126.141 38.68L117.181 38.68L117.181 36.08L126.321 36.08Q128.221 34 129.381 31.74L119.481 31.74L119.481 29.14L133.421 29.14Q131.961 33.1 129.541 36.08L135.821 36.08L135.821 38.68L128.821 38.68L128.821 47.04L122.301 47.04L122.301 44.4Z">
</path>
</g>
</svg>
