<svg xmlns="http://www.w3.org/2000/svg" xmlns:xlink="http://www.w3.org/1999/xlink" width="193" height="72" viewBox="0 0 193 72" fill="none">
<rect  x="0" y="6.46435546875" width="192.99978637695312" height="63" rx="20"    fill="#FFAA00" >
</rect>
<g >
<path     fill="#F5EFDA"  d="M57.1015 47Q60.0815 41.04 62.2415 34.62L57.8815 34.62L59.5215 29.14L62.1615 29.14L61.2615 32.12L63.0615 32.12Q63.5015 30.76 64.1215 28.6L66.9415 28.6Q66.7615 29.24 66.5815 29.8Q66.4015 30.36 66.2615 30.84L65.8615 32.12L75.5015 32.12L75.5015 34.62L65.0415 34.62Q64.8415 35.26 64.5415 36.08L64.4015 36.46L74.3815 36.46Q73.6815 40.4 70.8215 43.08Q72.8415 44.14 75.3815 44.72L75.3815 47.24Q71.4015 46.38 68.7015 44.7Q66.0015 46.38 62.0215 47.24L62.0215 44.72Q64.5615 44.14 66.5815 43.08Q64.5415 41.16 63.6215 38.66Q61.9815 43.08 60.1615 47L57.1015 47ZM66.4215 38.86Q67.2615 40.46 68.7015 41.66Q70.1415 40.46 70.9815 38.86L66.4215 38.86ZM72.2415 28.9L73.0215 31.72L70.4215 31.72L69.6415 28.9L72.2415 28.9ZM87.4415 34.02L92.2815 34.02L92.2815 31.78L86.6815 31.78L86.6815 29.26L94.8415 29.26L94.8415 36.5L89.9815 36.5L89.9815 40.34L92.8615 40.34L92.8615 38.78L95.4215 38.78L95.4215 42.82L87.4415 42.82L87.4415 34.02ZM77.1015 47Q77.8215 44.68 78.0715 42.7Q78.3215 40.72 78.3215 38L80.6815 38Q80.6815 40.84 80.4015 43.02Q81.0215 43.46 81.6615 43.68L81.6615 37.06L77.5015 37.06L77.5015 34.76L80.7415 34.76L80.7415 32.98L77.9615 32.98L77.9615 30.7L80.7415 30.7L80.7415 29L83.2215 29L83.2215 30.7L86.0015 30.7L86.0015 32.98L83.2215 32.98L83.2215 34.76L86.4615 34.76L86.4615 37.06L84.0815 37.06L84.0815 39.08L86.2015 39.08L86.2015 41.42L84.0815 41.42L84.0815 44.2Q84.9615 44.24 85.5015 44.24L95.7015 44.24L95.7015 46.8L85.5015 46.8Q83.5215 46.8 82.2315 46.55Q80.9415 46.3 79.9015 45.7L79.5815 47L77.1015 47ZM97.4815 44.5L103.461 43.84L103.461 46.42L97.4815 47.08L97.4815 44.5ZM100.201 29.2L102.661 29.2L100.281 34.92L100.961 35.34L102.001 32.78L104.341 32.78L101.441 39.9L103.561 39.9L103.561 42.48L97.5815 42.48L99.5415 37.68L97.2415 36.36L100.201 29.2ZM104.001 44.26L105.061 44.26L105.061 29.6L114.661 29.6L114.661 44.26L115.701 44.26L115.701 46.8L104.001 46.8L104.001 44.26ZM112.081 44.26L112.081 41.74L107.641 41.74L107.641 44.26L112.081 44.26ZM112.081 39.28L112.081 36.9L107.641 36.9L107.641 39.28L112.081 39.28ZM112.081 34.44L112.081 32.06L107.641 32.06L107.641 34.44L112.081 34.44ZM117.781 29.2L124.541 29.2Q124.541 31.38 124.251 33.2Q123.961 35.02 123.341 36.9Q124.441 38.82 124.441 40.9Q124.441 42.4 123.881 43.9Q126.141 42.48 127.331 39.76Q128.521 37.04 128.521 33.2L128.501 28.94L131.101 28.94L131.101 33.2Q131.101 37.1 132.321 39.86Q133.541 42.62 135.901 44L135.901 47.24Q133.861 46.24 132.311 44.47Q130.761 42.7 129.801 40.32Q128.861 42.7 127.311 44.47Q125.761 46.24 123.701 47.24L123.701 44.34Q123.541 44.7 123.441 44.88L120.701 44.88Q121.361 43.86 121.671 42.89Q121.981 41.92 121.981 40.9Q121.981 39.88 121.671 38.91Q121.361 37.94 120.701 36.9Q121.641 34.3 121.901 31.8L120.341 31.8L120.341 47L117.781 47L117.781 29.2Z">
</path>
</g>
</svg>
