<svg xmlns="http://www.w3.org/2000/svg" xmlns:xlink="http://www.w3.org/1999/xlink" width="21.88232421875" height="21.884628295898438" viewBox="0 0 21.88232421875 21.884628295898438" fill="none">
<path d="M10.9412 21.8846C9.46333 21.8846 8.03225 21.5947 6.68301 21.0241C5.38055 20.4723 4.20904 19.6843 3.20588 18.6788C2.20038 17.6733 1.41237 16.5041 0.860515 15.2016C0.289956 13.8524 0 12.419 0 10.9411C0 9.4633 0.289956 8.03224 0.860515 6.68301C1.41237 5.38054 2.20038 4.20904 3.20588 3.20587C4.21137 2.20039 5.38055 1.41237 6.68301 0.860514C8.03225 0.289956 9.46566 0 10.9412 0C12.419 0 13.8501 0.289956 15.1993 0.860514C16.5018 1.41237 17.6733 2.20039 18.6764 3.20587C19.6819 4.21136 20.47 5.38054 21.0218 6.68301C21.5924 8.03224 21.8823 9.46565 21.8823 10.9411C21.8823 12.419 21.5924 13.8501 21.0218 15.1993C20.47 16.5017 19.6819 17.6733 18.6764 18.6764C17.671 19.6819 16.5018 20.4699 15.1993 21.0218C13.8524 21.5947 12.419 21.8846 10.9412 21.8846ZM10.9412 0.883897C9.58257 0.883897 8.26608 1.15047 7.02676 1.67426C5.82951 2.18169 4.75387 2.90657 3.83022 3.83022C2.90657 4.75387 2.18168 5.82951 1.67425 7.02675C1.15047 8.26608 0.883898 9.58257 0.883898 10.9411C0.883898 12.2997 1.15047 13.6162 1.67425 14.8556C2.18168 16.0528 2.90657 17.1284 3.83022 18.0521C4.75387 18.9757 5.82951 19.7006 7.02676 20.208C8.26608 20.7318 9.58257 20.9984 10.9412 20.9984C12.2997 20.9984 13.6162 20.7318 14.8556 20.208C16.0528 19.7006 17.1285 18.9757 18.0521 18.0521C18.9758 17.1284 19.7006 16.0528 20.2081 14.8556C20.7318 13.6162 20.9984 12.2997 20.9984 10.9411C20.9984 9.58257 20.7318 8.26608 20.2081 7.02675C19.7006 5.82951 18.9758 4.75387 18.0521 3.83022C17.1285 2.90657 16.0528 2.18169 14.8556 1.67426C13.6162 1.15047 12.2997 0.883897 10.9412 0.883897Z"   fill="#D68829" >
</path>
</svg>
