<svg xmlns="http://www.w3.org/2000/svg" xmlns:xlink="http://www.w3.org/1999/xlink" width="30.88134765625" height="30.884674072265625" viewBox="0 0 30.88134765625 30.884674072265625" fill="none">
<path d="M15.4407 30.8847C13.3551 30.8847 11.3355 30.4755 9.43139 29.6703C7.59329 28.8915 5.94 27.7794 4.52429 26.3604C3.10529 24.9414 1.9932 23.2914 1.2144 21.4533C0.4092 19.5492 0 17.5263 0 15.4407C0 13.3551 0.4092 11.3355 1.2144 9.43139C1.9932 7.59329 3.10529 5.94 4.52429 4.52429C5.94329 3.1053 7.59329 1.9932 9.43139 1.2144C11.3355 0.4092 13.3584 0 15.4407 0C17.5263 0 19.5459 0.4092 21.45 1.2144C23.2881 1.9932 24.9414 3.1053 26.3571 4.52429C27.7761 5.94329 28.8882 7.59329 29.667 9.43139C30.4722 11.3355 30.8814 13.3584 30.8814 15.4407C30.8814 17.5263 30.4722 19.5459 29.667 21.45C28.8882 23.2881 27.7761 24.9414 26.3571 26.3571C24.9381 27.7761 23.2881 28.8882 21.45 29.667C19.5492 30.4755 17.5263 30.8847 15.4407 30.8847ZM15.4407 1.2474C13.5234 1.2474 11.6655 1.6236 9.9165 2.3628C8.22689 3.07891 6.70889 4.10189 5.40539 5.40539C4.10189 6.70889 3.07889 8.22689 2.36279 9.9165C1.6236 11.6655 1.2474 13.5234 1.2474 15.4407C1.2474 17.358 1.6236 19.2159 2.36279 20.9649C3.07889 22.6545 4.10189 24.1725 5.40539 25.476C6.70889 26.7795 8.22689 27.8025 9.9165 28.5186C11.6655 29.2578 13.5234 29.634 15.4407 29.634C17.358 29.634 19.2159 29.2578 20.9649 28.5186C22.6545 27.8025 24.1725 26.7795 25.476 25.476C26.7795 24.1725 27.8025 22.6545 28.5186 20.9649C29.2578 19.2159 29.634 17.358 29.634 15.4407C29.634 13.5234 29.2578 11.6655 28.5186 9.9165C27.8025 8.22689 26.7795 6.70889 25.476 5.40539C24.1725 4.10189 22.6545 3.07891 20.9649 2.3628C19.2159 1.6236 17.358 1.2474 15.4407 1.2474Z"   fill="#007AAB" >
</path>
</svg>
